<svg width="100" height="97" viewBox="0 0 100 97" fill="none" xmlns="http://www.w3.org/2000/svg">
<path d="M39.4375 3.67408C41.4265 2.60562 42.4209 2.0714 43.413 1.68129C47.6466 0.0165844 52.3534 0.0165844 56.587 1.68129C57.5791 2.0714 58.5735 2.60562 60.5625 3.67408L88.2425 18.5435C90.4442 19.7262 91.5451 20.3176 92.4922 20.9971C96.5426 23.9028 99.2067 28.358 99.8496 33.3012C100 34.4571 100 35.7068 100 38.206V62.5609C100 65.3472 100 66.7404 99.8191 68.0067C99.0434 73.4363 95.8346 78.216 91.103 80.9897C89.9994 81.6366 88.7099 82.1641 86.1311 83.2191L58.4511 94.5427C56.8427 95.2007 56.0385 95.5297 55.2354 95.7738C51.8223 96.8114 48.1777 96.8114 44.7646 95.7738C43.9615 95.5297 43.1573 95.2007 41.5489 94.5427L13.8689 83.2191C11.2901 82.1641 10.0006 81.6366 8.89705 80.9897C4.16541 78.216 0.956564 73.4363 0.18091 68.0067C0 66.7404 0 65.3472 0 62.5609V38.2061C0 35.7068 0 34.4571 0.150352 33.3012C0.793299 28.358 3.45737 23.9028 7.50776 20.9971C8.45493 20.3176 9.55578 19.7262 11.7575 18.5435L39.4375 3.67408Z" fill="#FFE5D8"/>
<g clip-path="url(#clip0)">
<path d="M77.3268 79C81.7128 79 85.2684 78.7267 85.2684 78.3897C85.2684 78.0526 81.7128 77.7793 77.3268 77.7793C72.9408 77.7793 69.3853 78.0526 69.3853 78.3897C69.3853 78.7267 72.9408 79 77.3268 79Z" fill="#E6E6E6"/>
<path d="M38.6398 79C43.0258 79 46.5813 78.7267 46.5813 78.3897C46.5813 78.0526 43.0258 77.7793 38.6398 77.7793C34.2538 77.7793 30.6982 78.0526 30.6982 78.3897C30.6982 78.7267 34.2538 79 38.6398 79Z" fill="#E6E6E6"/>
<path d="M73.8661 70.9589H19.8636C19.638 70.9586 19.4217 70.8682 19.2622 70.7075C19.1027 70.5467 19.0129 70.3288 19.0127 70.1015V17.8574C19.0129 17.6301 19.1027 17.4121 19.2622 17.2514C19.4217 17.0907 19.638 17.0002 19.8636 17H73.8661C74.0917 17.0002 74.308 17.0907 74.4675 17.2514C74.627 17.4121 74.7168 17.6301 74.717 17.8574V70.1015C74.7168 70.3288 74.627 70.5467 74.4675 70.7075C74.308 70.8682 74.0917 70.9586 73.8661 70.9589ZM19.8636 17.343C19.7282 17.3431 19.5985 17.3974 19.5027 17.4938C19.407 17.5902 19.3532 17.721 19.353 17.8574V70.1015C19.3532 70.2379 19.407 70.3686 19.5027 70.4651C19.5985 70.5615 19.7282 70.6158 19.8636 70.6159H73.8661C74.0015 70.6158 74.1313 70.5615 74.227 70.4651C74.3227 70.3686 74.3765 70.2379 74.3767 70.1015V17.8574C74.3765 17.721 74.3227 17.5902 74.227 17.4938C74.1313 17.3974 74.0015 17.3431 73.8661 17.343H19.8636Z" fill="#E6E6E6"/>
<path d="M22.9839 21.5728C22.8937 21.5729 22.8072 21.609 22.7434 21.6733C22.6795 21.7376 22.6437 21.8248 22.6436 21.9157V36.0913C22.6437 36.1823 22.6795 36.2694 22.7434 36.3337C22.8072 36.398 22.8937 36.4342 22.9839 36.4343H37.0518C37.142 36.4342 37.2285 36.398 37.2924 36.3337C37.3562 36.2694 37.3921 36.1823 37.3922 36.0913V21.9157C37.3921 21.8248 37.3562 21.7376 37.2924 21.6733C37.2285 21.609 37.142 21.5729 37.0518 21.5728H22.9839Z" fill="#E6E6E6"/>
<path d="M45.111 31.8331C45.0031 31.8349 44.9002 31.8793 44.8246 31.9568C44.7489 32.0343 44.7065 32.1387 44.7065 32.2474C44.7065 32.3561 44.7489 32.4605 44.8246 32.538C44.9002 32.6155 45.0031 32.66 45.111 32.6618H64.4972C64.5513 32.6628 64.605 32.6531 64.6554 32.6331C64.7057 32.6132 64.7517 32.5835 64.7906 32.5456C64.8295 32.5078 64.8607 32.4625 64.8822 32.4125C64.9038 32.3625 64.9153 32.3087 64.9162 32.2542C64.9171 32.1997 64.9073 32.1456 64.8874 32.0949C64.8675 32.0442 64.8378 31.998 64.8002 31.9589C64.7625 31.9198 64.7175 31.8885 64.6679 31.8669C64.6182 31.8453 64.5648 31.8338 64.5107 31.8331C64.5062 31.833 64.5017 31.833 64.4972 31.8331H45.111Z" fill="#E6E6E6"/>
<path d="M45.111 28.0604C45.0031 28.0622 44.9002 28.1066 44.8246 28.1841C44.7489 28.2616 44.7065 28.366 44.7065 28.4747C44.7065 28.5834 44.7489 28.6878 44.8246 28.7653C44.9002 28.8428 45.0031 28.8873 45.111 28.8891H50.6562C50.7103 28.8901 50.7641 28.8804 50.8144 28.8604C50.8647 28.8405 50.9107 28.8108 50.9496 28.7729C50.9885 28.735 51.0197 28.6898 51.0412 28.6398C51.0628 28.5898 51.0743 28.536 51.0752 28.4815C51.0761 28.427 51.0663 28.3729 51.0464 28.3222C51.0265 28.2715 50.9969 28.2253 50.9592 28.1862C50.9215 28.147 50.8766 28.1158 50.8269 28.0942C50.7772 28.0726 50.7238 28.0611 50.6697 28.0604C50.6652 28.0603 50.6607 28.0603 50.6562 28.0604H45.111Z" fill="#E6E6E6"/>
<path d="M45.111 35.72C45.0031 35.7218 44.9002 35.7663 44.8246 35.8438C44.7489 35.9213 44.7065 36.0257 44.7065 36.1344C44.7065 36.2431 44.7489 36.3475 44.8246 36.425C44.9002 36.5025 45.0031 36.5469 45.111 36.5487H64.4972C64.6061 36.5502 64.7111 36.5082 64.7893 36.4318C64.8674 36.3554 64.9123 36.2509 64.9141 36.1412C64.9159 36.0315 64.8744 35.9255 64.7988 35.8466C64.7232 35.7676 64.6196 35.7221 64.5107 35.72C64.5062 35.72 64.5017 35.72 64.4972 35.72H45.111Z" fill="#E6E6E6"/>
<path d="M77.5506 76.3315C80.249 76.3315 82.4366 74.1272 82.4366 71.4081C82.4366 68.6889 80.249 66.4846 77.5506 66.4846C74.8521 66.4846 72.6646 68.6889 72.6646 71.4081C72.6646 74.1272 74.8521 76.3315 77.5506 76.3315Z" fill="#2F2E41"/>
<path d="M79.7773 75.2722H78.293V77.952H79.7773V75.2722Z" fill="#2F2E41"/>
<path d="M76.8086 75.2722H75.3242V77.952H76.8086V75.2722Z" fill="#2F2E41"/>
<path d="M78.5397 78.4505C79.2229 78.4505 79.7767 78.2412 79.7767 77.983C79.7767 77.7249 79.2229 77.5156 78.5397 77.5156C77.8565 77.5156 77.3027 77.7249 77.3027 77.983C77.3027 78.2412 77.8565 78.4505 78.5397 78.4505Z" fill="#2F2E41"/>
<path d="M75.571 78.3882C76.2541 78.3882 76.8079 78.1789 76.8079 77.9208C76.8079 77.6626 76.2541 77.4534 75.571 77.4534C74.8878 77.4534 74.334 77.6626 74.334 77.9208C74.334 78.1789 74.8878 78.3882 75.571 78.3882Z" fill="#2F2E41"/>
<path d="M77.4267 71.8444C78.349 71.8444 79.0967 71.091 79.0967 70.1617C79.0967 69.2324 78.349 68.479 77.4267 68.479C76.5045 68.479 75.7568 69.2324 75.7568 70.1617C75.7568 71.091 76.5045 71.8444 77.4267 71.8444Z" fill="white"/>
<path d="M77.4268 70.7226C77.7342 70.7226 77.9834 70.4715 77.9834 70.1617C77.9834 69.852 77.7342 69.6008 77.4268 69.6008C77.1193 69.6008 76.8701 69.852 76.8701 70.1617C76.8701 70.4715 77.1193 70.7226 77.4268 70.7226Z" fill="#3F3D56"/>
<path d="M82.29 66.8295C82.6845 65.0492 81.4234 63.2502 79.4732 62.8114C77.523 62.3726 75.6222 63.4601 75.2277 65.2405C74.8332 67.0209 76.1256 67.6775 78.0758 68.1163C80.0261 68.5551 81.8955 68.6099 82.29 66.8295Z" fill="#E6E6E6"/>
<path d="M25.5146 38.716C25.5159 39.4708 25.3439 40.2158 25.012 40.8926C24.9746 40.9703 24.9349 41.0458 24.8929 41.1212H16.3648C16.3229 41.0458 16.2831 40.9703 16.2457 40.8926C15.9201 40.2274 15.7479 39.4966 15.7419 38.7549C15.7358 38.0132 15.8962 37.2798 16.2109 36.6093C16.5257 35.9388 16.9867 35.3486 17.5595 34.8828C18.1324 34.417 18.8022 34.0876 19.5191 33.9193C20.236 33.7509 20.9813 33.748 21.6995 33.9106C22.4177 34.0732 23.0901 34.3972 23.6666 34.8584C24.2431 35.3196 24.7087 35.9061 25.0287 36.5741C25.3487 37.242 25.5148 37.9742 25.5146 38.716Z" fill="#2F2E41"/>
<path d="M20.7529 39.152C21.6752 39.152 22.4228 38.3986 22.4228 37.4693C22.4228 36.54 21.6752 35.7866 20.7529 35.7866C19.8306 35.7866 19.083 36.54 19.083 37.4693C19.083 38.3986 19.8306 39.152 20.7529 39.152Z" fill="white"/>
<path d="M20.7529 38.0302C21.0603 38.0302 21.3096 37.7791 21.3096 37.4693C21.3096 37.1596 21.0603 36.9084 20.7529 36.9084C20.4455 36.9084 20.1963 37.1596 20.1963 37.4693C20.1963 37.7791 20.4455 38.0302 20.7529 38.0302Z" fill="#3F3D56"/>
<path d="M15.8896 34.1369C15.4951 32.3565 16.7562 30.5575 18.7064 30.1187C20.6567 29.6799 22.5574 30.7675 22.952 32.5479C23.3465 34.3283 22.054 34.9849 20.1038 35.4237C18.1536 35.8625 16.2841 35.9173 15.8896 34.1369Z" fill="#E0BAF8"/>
<path d="M27.6351 25.8025H13.5673C13.4168 25.8025 13.2726 25.8628 13.1662 25.97C13.0598 26.0772 13.0001 26.2225 13 26.3741V40.5497C13.0001 40.7013 13.0598 40.8467 13.1662 40.9538C13.2726 41.061 13.4168 41.1213 13.5673 41.1213H27.6351C27.7856 41.1213 27.9298 41.061 28.0362 40.9538C28.1426 40.8467 28.2023 40.7013 28.2024 40.5497V26.3741C28.2023 26.2225 28.1426 26.0772 28.0362 25.97C27.9298 25.8628 27.7856 25.8025 27.6351 25.8025ZM27.9755 40.5497C27.9752 40.6406 27.9393 40.7277 27.8755 40.7919C27.8117 40.8562 27.7253 40.8924 27.6351 40.8927H13.5673C13.4771 40.8924 13.3907 40.8562 13.3269 40.7919C13.2631 40.7277 13.2272 40.6406 13.2269 40.5497V26.3741C13.2272 26.2832 13.2631 26.1961 13.3269 26.1319C13.3907 26.0676 13.4771 26.0314 13.5673 26.0311H27.6351C27.7253 26.0314 27.8118 26.0676 27.8755 26.1319C27.9393 26.1961 27.9752 26.2832 27.9755 26.3741V40.5497Z" fill="#3F3D56"/>
<path d="M43.0765 67.9662C43.5582 66.6962 43.628 65.5432 43.2323 65.3908C42.8367 65.2384 42.1254 66.1444 41.6437 67.4144C41.162 68.6844 41.0922 69.8374 41.4879 69.9898C41.8835 70.1422 42.5948 69.2362 43.0765 67.9662Z" fill="#2F2E41"/>
<path d="M42.6668 72.1969C43.0991 69.5129 41.2902 66.984 38.6265 66.5484C35.9629 66.1128 33.4532 67.9356 33.0209 70.6196C32.5887 73.3037 34.3976 75.8326 37.0612 76.2681C39.7249 76.7037 42.2346 74.881 42.6668 72.1969Z" fill="#2F2E41"/>
<path d="M37.102 75.2722H35.6177V77.952H37.102V75.2722Z" fill="#2F2E41"/>
<path d="M40.0708 75.2722H38.5864V77.952H40.0708V75.2722Z" fill="#2F2E41"/>
<path d="M36.8546 78.4505C37.5378 78.4505 38.0916 78.2412 38.0916 77.983C38.0916 77.7249 37.5378 77.5156 36.8546 77.5156C36.1715 77.5156 35.6177 77.7249 35.6177 77.983C35.6177 78.2412 36.1715 78.4505 36.8546 78.4505Z" fill="#2F2E41"/>
<path d="M39.8234 78.3882C40.5066 78.3882 41.0604 78.1789 41.0604 77.9208C41.0604 77.6626 40.5066 77.4534 39.8234 77.4534C39.1402 77.4534 38.5864 77.6626 38.5864 77.9208C38.5864 78.1789 39.1402 78.3882 39.8234 78.3882Z" fill="#2F2E41"/>
<path d="M33.1045 66.8296C32.7099 65.0492 33.9711 63.2502 35.9213 62.8114C37.8715 62.3726 39.7723 63.4601 40.1668 65.2405C40.5613 67.0209 39.2688 67.6776 37.3186 68.1164C35.3684 68.5552 33.499 68.61 33.1045 66.8296Z" fill="#E0BAF8"/>
<path d="M34.548 70.1787C34.7295 69.793 33.8884 69.0081 32.6693 68.4255C31.4502 67.8429 30.3149 67.6832 30.1333 68.0688C29.9518 68.4545 30.7929 69.2394 32.012 69.822C33.2311 70.4046 34.3665 70.5643 34.548 70.1787Z" fill="#2F2E41"/>
<path d="M79.0246 61.2024C81.657 61.2024 83.791 59.052 83.791 56.3995C83.791 53.747 81.657 51.5967 79.0246 51.5967C76.3923 51.5967 74.2583 53.747 74.2583 56.3995C74.2583 59.052 76.3923 61.2024 79.0246 61.2024Z" fill="#2F2E41"/>
<path d="M81.2141 60.1585L79.7661 60.1653L79.7782 62.7794L81.2262 62.7727L81.2141 60.1585Z" fill="#2F2E41"/>
<path d="M78.3181 60.1719L76.8701 60.1787L76.8822 62.7929L78.3302 62.7861L78.3181 60.1719Z" fill="#2F2E41"/>
<path d="M77.534 63.4585C78.1096 63.12 78.474 62.6693 78.3481 62.4518C78.2221 62.2343 77.6534 62.3324 77.0778 62.6708C76.5023 63.0093 76.1378 63.46 76.2637 63.6775C76.3897 63.895 76.9584 63.7969 77.534 63.4585Z" fill="#2F2E41"/>
<path d="M80.3694 63.4451C80.945 63.1066 81.3095 62.6559 81.1835 62.4384C81.0576 62.2209 80.4889 62.319 79.9133 62.6574C79.3377 62.9959 78.9732 63.4466 79.0992 63.6641C79.2251 63.8816 79.7938 63.7835 80.3694 63.4451Z" fill="#2F2E41"/>
<path d="M78.898 56.8257C79.7977 56.8257 80.527 56.0908 80.527 55.1842C80.527 54.2776 79.7977 53.5427 78.898 53.5427C77.9984 53.5427 77.269 54.2776 77.269 55.1842C77.269 56.0908 77.9984 56.8257 78.898 56.8257Z" fill="white"/>
<path d="M78.3404 55.0347C78.6403 55.0347 78.8834 54.7898 78.8834 54.4876C78.8834 54.1854 78.6403 53.9404 78.3404 53.9404C78.0405 53.9404 77.7974 54.1854 77.7974 54.4876C77.7974 54.7898 78.0405 55.0347 78.3404 55.0347Z" fill="#3F3D56"/>
<path d="M83.628 51.9114C84.0048 50.1728 82.7665 48.4236 80.8621 48.0045C78.9577 47.5854 77.1084 48.655 76.7316 50.3935C76.3547 52.1321 77.6185 52.7667 79.5229 53.1859C81.4273 53.605 83.2512 53.6499 83.628 51.9114Z" fill="#E0BAF8"/>
<path d="M76.2423 54.9024C76.4031 54.5188 75.5506 53.7895 74.3382 53.2733C73.1258 52.7571 72.0125 52.6496 71.8517 53.0331C71.6909 53.4166 72.5434 54.146 73.7558 54.6622C74.9682 55.1784 76.0814 55.2859 76.2423 54.9024Z" fill="#2F2E41"/>
<path d="M85.9806 58.8828C86.1414 58.4993 85.2889 57.77 84.0765 57.2538C82.8641 56.7376 81.7508 56.63 81.59 57.0136C81.4292 57.3971 82.2817 58.1265 83.4941 58.6426C84.7065 59.1588 85.8197 59.2664 85.9806 58.8828Z" fill="#2F2E41"/>
<path d="M79.9879 58.4923C79.9888 58.6361 79.9616 58.7786 79.9078 58.9118C79.8541 59.045 79.7748 59.1662 79.6745 59.2685C79.5742 59.3708 79.4549 59.4521 79.3234 59.5079C79.1919 59.5637 79.0507 59.5929 78.908 59.5937C78.7654 59.5945 78.6239 59.5669 78.4918 59.5126C78.3597 59.4583 78.2394 59.3783 78.138 59.2772C78.0366 59.1761 77.956 59.0558 77.9007 58.9232C77.8454 58.7906 77.8166 58.6484 77.8159 58.5046L77.8159 58.5025C77.8131 57.8981 78.2988 57.7707 78.8986 57.7679C79.4983 57.7651 79.9851 57.8879 79.9879 58.4923Z" fill="white"/>
<path d="M68.1723 50.6914H41.5297C41.0103 50.6914 40.5894 50.3893 40.5889 50.0169V44.1818C40.5894 43.8095 41.0103 43.5073 41.5297 43.5073H68.1723C68.6916 43.5073 69.1125 43.8095 69.1131 44.1818V50.0168C69.1126 50.3892 68.6916 50.691 68.1723 50.6914Z" fill="#E6E6E6"/>
<path d="M50.1337 64.8672H23.4911C22.9718 64.8672 22.5509 64.565 22.5503 64.1927V58.3576C22.5509 57.9853 22.9718 57.6831 23.4911 57.6831H50.1337C50.6531 57.6831 51.074 57.9853 51.0745 58.3576V64.1926C51.0741 64.5649 50.6531 64.8667 50.1337 64.8672Z" fill="#E6E6E6"/>
<path d="M42.0961 68.0815H15.4535C14.9342 68.0815 14.5133 67.7794 14.5127 67.4071V61.5719C14.5133 61.1996 14.9342 60.8975 15.4535 60.8975H42.0961C42.6155 60.8975 43.0364 61.1996 43.0369 61.5719V67.4069C43.0365 67.7793 42.6155 68.0811 42.0961 68.0815ZM15.4535 61.167C15.1419 61.167 14.8894 61.3483 14.889 61.5717V67.4067C14.889 67.6301 15.1419 67.8112 15.4535 67.8114H42.0961C42.4077 67.8114 42.6603 67.6301 42.6606 67.4067V61.5719C42.6606 61.3486 42.4077 61.1675 42.0961 61.1673L15.4535 61.167Z" fill="#3F3D56"/>
<path d="M51.6868 52.0961C52.8773 52.0961 53.8424 51.1236 53.8424 49.924C53.8424 48.7244 52.8773 47.752 51.6868 47.752C50.4963 47.752 49.5312 48.7244 49.5312 49.924C49.5312 51.1236 50.4963 52.0961 51.6868 52.0961Z" fill="#E0BAF8"/>
<path d="M19.3533 66.6147C20.5438 66.6147 21.5089 65.6422 21.5089 64.4426C21.5089 63.243 20.5438 62.2705 19.3533 62.2705C18.1628 62.2705 17.1978 63.243 17.1978 64.4426C17.1978 65.6422 18.1628 66.6147 19.3533 66.6147Z" fill="#E0BAF8"/>
<path d="M56.3429 48.3665C56.235 48.3683 56.1322 48.4128 56.0565 48.4903C55.9809 48.5678 55.9385 48.6722 55.9385 48.7809C55.9385 48.8896 55.9809 48.994 56.0565 49.0715C56.1322 49.149 56.235 49.1934 56.3429 49.1952H71.7584C71.8672 49.1968 71.9723 49.1547 72.0504 49.0783C72.1286 49.0019 72.1735 48.8974 72.1753 48.7877C72.1771 48.6779 72.1356 48.572 72.06 48.493C71.9843 48.4141 71.8807 48.3686 71.7719 48.3665C71.7674 48.3664 71.7629 48.3664 71.7584 48.3665H56.3429Z" fill="#3F3D56"/>
<path d="M56.3429 50.6529C56.235 50.6547 56.1322 50.6991 56.0565 50.7767C55.9809 50.8542 55.9385 50.9585 55.9385 51.0672C55.9385 51.176 55.9809 51.2803 56.0565 51.3578C56.1322 51.4353 56.235 51.4798 56.3429 51.4816H71.7584C71.8672 51.4831 71.9723 51.4411 72.0504 51.3647C72.1286 51.2882 72.1735 51.1837 72.1753 51.074C72.1771 50.9643 72.1356 50.8584 72.06 50.7794C71.9843 50.7005 71.8807 50.655 71.7719 50.6529C71.7674 50.6528 71.7629 50.6528 71.7584 50.6529H56.3429Z" fill="#3F3D56"/>
<path d="M24.0094 62.8851C23.9015 62.8869 23.7987 62.9313 23.723 63.0088C23.6474 63.0863 23.605 63.1907 23.605 63.2994C23.605 63.4081 23.6474 63.5125 23.723 63.59C23.7987 63.6675 23.9015 63.712 24.0094 63.7138H39.4249C39.5338 63.7153 39.6388 63.6732 39.7169 63.5968C39.7951 63.5204 39.84 63.4159 39.8418 63.3062C39.8436 63.1965 39.8021 63.0905 39.7265 63.0116C39.6509 62.9326 39.5472 62.8871 39.4384 62.8851C39.4339 62.885 39.4294 62.885 39.4249 62.8851H24.0094Z" fill="#3F3D56"/>
<path d="M24.0094 65.1714C23.9015 65.1732 23.7987 65.2177 23.723 65.2952C23.6474 65.3727 23.605 65.4771 23.605 65.5858C23.605 65.6945 23.6474 65.7989 23.723 65.8764C23.7987 65.9539 23.9015 65.9984 24.0094 66.0002H39.4249C39.5338 66.0017 39.6388 65.9596 39.7169 65.8832C39.7951 65.8068 39.84 65.7023 39.8418 65.5926C39.8436 65.4829 39.8021 65.3769 39.7265 65.298C39.6509 65.219 39.5472 65.1735 39.4384 65.1714C39.4339 65.1714 39.4294 65.1714 39.4249 65.1714H24.0094Z" fill="#3F3D56"/>
<path d="M75.1029 53.5442H48.4604C47.941 53.5442 47.5201 53.242 47.5195 52.8697V47.0346C47.5201 46.6623 47.941 46.3601 48.4604 46.3601H75.1029C75.6223 46.3601 76.0432 46.6623 76.0438 47.0346V52.8696C76.0433 53.2419 75.6223 53.5437 75.1029 53.5442ZM48.4604 46.6297C48.1487 46.6297 47.8962 46.811 47.8958 47.0344V52.8694C47.8958 53.0927 48.1487 53.2738 48.4604 53.274H75.1029C75.4146 53.274 75.6671 53.0927 75.6675 52.8694V47.0346C75.6675 46.8112 75.4146 46.6301 75.1029 46.6299L48.4604 46.6297Z" fill="#3F3D56"/>
</g>
<defs>
<clipPath id="clip0">
<rect width="73" height="62" fill="white" transform="translate(13 17)"/>
</clipPath>
</defs>
</svg>
