<svg width="100" height="97" viewBox="0 0 100 97" fill="none" xmlns="http://www.w3.org/2000/svg">
<path d="M39.4375 3.67408C41.4265 2.60562 42.4209 2.0714 43.413 1.68129C47.6466 0.0165844 52.3534 0.0165844 56.587 1.68129C57.5791 2.0714 58.5735 2.60562 60.5625 3.67408L88.2425 18.5435C90.4442 19.7262 91.5451 20.3176 92.4922 20.9971C96.5426 23.9028 99.2067 28.358 99.8496 33.3012C100 34.4571 100 35.7068 100 38.206V62.5609C100 65.3472 100 66.7404 99.8191 68.0067C99.0434 73.4363 95.8346 78.216 91.103 80.9897C89.9994 81.6366 88.7099 82.1641 86.1311 83.2191L58.4511 94.5427C56.8427 95.2007 56.0385 95.5297 55.2354 95.7738C51.8223 96.8114 48.1777 96.8114 44.7646 95.7738C43.9615 95.5297 43.1573 95.2007 41.5489 94.5427L13.8689 83.2191C11.2901 82.1641 10.0006 81.6366 8.89705 80.9897C4.16541 78.216 0.956564 73.4363 0.18091 68.0067C0 66.7404 0 65.3472 0 62.5609V38.2061C0 35.7068 0 34.4571 0.150352 33.3012C0.793299 28.358 3.45737 23.9028 7.50776 20.9971C8.45493 20.3176 9.55578 19.7262 11.7575 18.5435L39.4375 3.67408Z" fill="#D7FFE5"/>
<g clip-path="url(#clip0)">
<path d="M14.7189 66.0803L14.6032 66.0367C14.5777 66.027 12.046 65.0516 10.86 62.8398C9.67393 60.6279 10.2547 57.9648 10.2607 57.9382L10.288 57.817L10.4037 57.8606C10.4292 57.8702 12.9609 58.8457 14.1469 61.0574C15.3329 63.2693 14.7522 65.9324 14.7462 65.959L14.7189 66.0803ZM11.0499 62.7369C12.0526 64.6069 14.0533 65.5655 14.5602 65.7844C14.6566 65.238 14.9588 63.0287 13.957 61.1604C12.9553 59.2924 10.9538 58.3323 10.4467 58.1129C10.3503 58.6596 10.0481 60.8687 11.0499 62.7369Z" fill="#3F3D56"/>
<path d="M11.7662 62.064C13.8975 63.3535 14.7184 65.9148 14.7184 65.9148C14.7184 65.9148 12.0836 66.3854 9.95223 65.0959C7.82086 63.8064 7 61.2451 7 61.2451C7 61.2451 9.63478 60.7745 11.7662 62.064Z" fill="#D0CDE1"/>
<path d="M79.9774 28.4926H56.2101V28H45.4331V28.4926H21.5679C21.3568 28.4926 21.1477 28.5344 20.9527 28.6157C20.7576 28.6969 20.5804 28.816 20.4311 28.9661C20.2818 29.1163 20.1634 29.2945 20.0826 29.4906C20.0018 29.6868 19.9602 29.897 19.9602 30.1093V62.8365C19.9602 63.2653 20.1296 63.6765 20.4311 63.9797C20.7326 64.2829 21.1415 64.4532 21.5679 64.4532H79.9774C80.1885 64.4532 80.3975 64.4114 80.5926 64.3301C80.7876 64.2489 80.9649 64.1298 81.1142 63.9797C81.2634 63.8296 81.3819 63.6513 81.4627 63.4552C81.5435 63.259 81.585 63.0488 81.585 62.8365V30.1093C81.585 29.897 81.5435 29.6868 81.4627 29.4906C81.3819 29.2945 81.2634 29.1163 81.1142 28.9661C80.9649 28.816 80.7876 28.6969 80.5926 28.6157C80.3975 28.5344 80.1885 28.4926 79.9774 28.4926V28.4926Z" fill="#3F3D56"/>
<path d="M79.4295 31.3498H22.1155V63.8621H79.4295V31.3498Z" fill="#FBE8E9"/>
<path d="M50.7236 30.4631C51.0482 30.4631 51.3114 30.1984 51.3114 29.872C51.3114 29.5455 51.0482 29.2808 50.7236 29.2808C50.3989 29.2808 50.1357 29.5455 50.1357 29.872C50.1357 30.1984 50.3989 30.4631 50.7236 30.4631Z" fill="#FBE8E9"/>
<path d="M76.1394 35.4876H73.4226V32.7556H76.1394V35.4876ZM73.5407 35.3688H76.0213V32.8743H73.5407V35.3688Z" fill="#3F3D56"/>
<path d="M83.1944 63.271H77.6009V62.8657C77.6009 62.8551 77.5988 62.8447 77.5948 62.8349C77.5908 62.8252 77.5849 62.8163 77.5775 62.8089C77.5701 62.8014 77.5613 62.7955 77.5516 62.7915C77.5419 62.7874 77.5315 62.7853 77.521 62.7853H75.6032C75.5927 62.7853 75.5823 62.7874 75.5727 62.7915C75.563 62.7955 75.5541 62.8014 75.5467 62.8089C75.5393 62.8163 75.5334 62.8252 75.5294 62.8349C75.5254 62.8447 75.5233 62.8551 75.5233 62.8657V63.271H74.3247V62.8657C74.3247 62.8551 74.3227 62.8447 74.3186 62.8349C74.3146 62.8252 74.3087 62.8163 74.3013 62.8089C74.2939 62.8014 74.2851 62.7955 74.2754 62.7915C74.2657 62.7874 74.2553 62.7853 74.2448 62.7853H72.3271C72.3166 62.7853 72.3062 62.7874 72.2965 62.7915C72.2868 62.7955 72.278 62.8014 72.2705 62.8089C72.2631 62.8163 72.2572 62.8252 72.2532 62.8349C72.2492 62.8447 72.2471 62.8551 72.2471 62.8657V63.271H71.0485V62.8657C71.0485 62.8551 71.0465 62.8447 71.0425 62.8349C71.0384 62.8252 71.0326 62.8163 71.0251 62.8089C71.0177 62.8014 71.0089 62.7955 70.9992 62.7915C70.9895 62.7874 70.9791 62.7853 70.9686 62.7853H69.0509C69.0404 62.7853 69.03 62.7874 69.0203 62.7915C69.0106 62.7955 69.0018 62.8014 68.9944 62.8089C68.9869 62.8163 68.9811 62.8252 68.977 62.8349C68.973 62.8447 68.971 62.8551 68.971 62.8657V63.271H67.7724V62.8657C67.7724 62.8551 67.7703 62.8447 67.7663 62.8349C67.7623 62.8252 67.7564 62.8163 67.749 62.8089C67.7415 62.8014 67.7327 62.7955 67.723 62.7915C67.7133 62.7874 67.703 62.7853 67.6925 62.7853H65.7747C65.7642 62.7853 65.7538 62.7874 65.7441 62.7915C65.7344 62.7955 65.7256 62.8014 65.7182 62.8089C65.7108 62.8163 65.7049 62.8252 65.7009 62.8349C65.6969 62.8447 65.6948 62.8551 65.6948 62.8657V63.271H64.4962V62.8657C64.4962 62.8551 64.4941 62.8447 64.4901 62.8349C64.4861 62.8252 64.4802 62.8163 64.4728 62.8089C64.4654 62.8014 64.4566 62.7955 64.4469 62.7915C64.4372 62.7874 64.4268 62.7853 64.4163 62.7853H62.4985C62.488 62.7853 62.4776 62.7874 62.4679 62.7915C62.4582 62.7955 62.4494 62.8014 62.442 62.8089C62.4346 62.8163 62.4287 62.8252 62.4247 62.8349C62.4207 62.8447 62.4186 62.8551 62.4186 62.8657V63.271H61.22V62.8657C61.22 62.8551 61.2179 62.8447 61.2139 62.8349C61.2099 62.8252 61.204 62.8163 61.1966 62.8089C61.1892 62.8014 61.1804 62.7955 61.1707 62.7915C61.161 62.7874 61.1506 62.7853 61.1401 62.7853H59.2223C59.2118 62.7853 59.2014 62.7874 59.1918 62.7915C59.1821 62.7955 59.1733 62.8014 59.1658 62.8089C59.1584 62.8163 59.1525 62.8252 59.1485 62.8349C59.1445 62.8447 59.1424 62.8551 59.1424 62.8657V63.271H57.9438V62.8657C57.9438 62.8551 57.9418 62.8447 57.9377 62.8349C57.9337 62.8252 57.9278 62.8163 57.9204 62.8089C57.913 62.8014 57.9042 62.7955 57.8945 62.7915C57.8848 62.7874 57.8744 62.7853 57.8639 62.7853H42.8414C42.831 62.7853 42.8206 62.7874 42.8109 62.7915C42.8012 62.7955 42.7924 62.8014 42.7849 62.8089C42.7775 62.8163 42.7716 62.8252 42.7676 62.8349C42.7636 62.8447 42.7615 62.8551 42.7615 62.8657V63.271H41.5629V62.8657C41.5629 62.8551 41.5609 62.8447 41.5569 62.8349C41.5528 62.8252 41.5469 62.8163 41.5395 62.8089C41.5321 62.8014 41.5233 62.7955 41.5136 62.7915C41.5039 62.7874 41.4935 62.7853 41.483 62.7853H39.5653C39.5548 62.7853 39.5444 62.7874 39.5347 62.7915C39.525 62.7955 39.5162 62.8014 39.5088 62.8089C39.5013 62.8163 39.4955 62.8252 39.4914 62.8349C39.4874 62.8447 39.4854 62.8551 39.4854 62.8657V63.271H38.2868V62.8657C38.2868 62.8551 38.2847 62.8447 38.2807 62.8349C38.2767 62.8252 38.2708 62.8163 38.2634 62.8089C38.2559 62.8014 38.2471 62.7955 38.2374 62.7915C38.2277 62.7874 38.2173 62.7853 38.2068 62.7853H36.2891C36.2786 62.7853 36.2682 62.7874 36.2585 62.7915C36.2488 62.7955 36.24 62.8014 36.2326 62.8089C36.2252 62.8163 36.2193 62.8252 36.2153 62.8349C36.2112 62.8447 36.2092 62.8551 36.2092 62.8657V63.271H35.0106V62.8657C35.0106 62.8551 35.0085 62.8447 35.0045 62.8349C35.0005 62.8252 34.9946 62.8163 34.9872 62.8089C34.9798 62.8014 34.9709 62.7955 34.9612 62.7915C34.9516 62.7874 34.9412 62.7853 34.9307 62.7853H33.0129C33.0024 62.7853 32.992 62.7874 32.9823 62.7915C32.9726 62.7955 32.9638 62.8014 32.9564 62.8089C32.949 62.8163 32.9431 62.8252 32.9391 62.8349C32.9351 62.8447 32.933 62.8551 32.933 62.8657V63.271H31.7344V62.8657C31.7344 62.8551 31.7323 62.8447 31.7283 62.8349C31.7243 62.8252 31.7184 62.8163 31.711 62.8089C31.7036 62.8014 31.6948 62.7955 31.6851 62.7915C31.6754 62.7874 31.665 62.7853 31.6545 62.7853H29.7367C29.7262 62.7853 29.7158 62.7874 29.7061 62.7915C29.6965 62.7955 29.6876 62.8014 29.6802 62.8089C29.6728 62.8163 29.6669 62.8252 29.6629 62.8349C29.6589 62.8447 29.6568 62.8551 29.6568 62.8657V63.271H28.4582V62.8657C28.4582 62.8551 28.4562 62.8447 28.4521 62.8349C28.4481 62.8252 28.4422 62.8163 28.4348 62.8089C28.4274 62.8014 28.4186 62.7955 28.4089 62.7915C28.3992 62.7874 28.3888 62.7853 28.3783 62.7853H26.4605C26.4501 62.7853 26.4397 62.7874 26.43 62.7915C26.4203 62.7955 26.4115 62.8014 26.404 62.8089C26.3966 62.8163 26.3907 62.8252 26.3867 62.8349C26.3827 62.8447 26.3806 62.8551 26.3806 62.8657V63.271H25.182V62.8657C25.182 62.8551 25.18 62.8447 25.176 62.8349C25.1719 62.8252 25.1661 62.8163 25.1586 62.8089C25.1512 62.8014 25.1424 62.7955 25.1327 62.7915C25.123 62.7874 25.1126 62.7853 25.1021 62.7853H23.1844C23.1739 62.7853 23.1635 62.7874 23.1538 62.7915C23.1441 62.7955 23.1353 62.8014 23.1279 62.8089C23.1204 62.8163 23.1146 62.8252 23.1105 62.8349C23.1065 62.8447 23.1045 62.8551 23.1045 62.8657V63.271H19.4287C18.9201 63.271 18.4323 63.4741 18.0727 63.8358C17.713 64.1975 17.511 64.688 17.511 65.1995V66.0715C17.511 66.583 17.713 67.0735 18.0727 67.4352C18.4323 67.7968 18.9201 68 19.4287 68H83.1944C83.703 68 84.1908 67.7968 84.5504 67.4352C84.9101 67.0735 85.1121 66.583 85.1121 66.0715V65.1995C85.1121 64.688 84.9101 64.1975 84.5504 63.8358C84.1908 63.4741 83.703 63.271 83.1944 63.271V63.271Z" fill="#3F3D56"/>
<path d="M92.9999 66.0215H9.6228V66.2774H92.9999V66.0215Z" fill="#3F3D56"/>
<path d="M51.0954 59.8902C55.4491 59.8902 58.9785 56.3411 58.9785 51.963C58.9785 47.5849 55.4491 44.0357 51.0954 44.0357C46.7418 44.0357 43.2124 47.5849 43.2124 51.963C43.2124 56.3411 46.7418 59.8902 51.0954 59.8902Z" fill="#2F2E41"/>
<path d="M48.0507 62.8186L45.6941 62.3896L46.4584 57.4413L48.815 57.8704L48.0507 62.8186Z" fill="#2F2E41"/>
<path d="M53.5282 58.7283L51.1716 58.2993L50.4073 62.5451L52.7638 62.9741L53.5282 58.7283Z" fill="#2F2E41"/>
<path d="M54.3389 63.2054C54.4207 62.798 53.6112 62.2899 52.5308 62.0706C51.4504 61.8512 50.5082 62.0037 50.4264 62.4112C50.3446 62.8186 51.1542 63.3267 52.2346 63.546C53.315 63.7653 54.2571 63.6128 54.3389 63.2054Z" fill="#2F2E41"/>
<path d="M49.4306 63.0775C49.4849 62.6655 48.6431 62.2134 47.5505 62.0679C46.4578 61.9223 45.5281 62.1383 45.4738 62.5504C45.4195 62.9624 46.2613 63.4144 47.3539 63.56C48.4466 63.7056 49.3763 63.4895 49.4306 63.0775Z" fill="#2F2E41"/>
<path d="M51.6473 52.7332C53.1353 52.7332 54.3415 51.5202 54.3415 50.0239C54.3415 48.5276 53.1353 47.3146 51.6473 47.3146C50.1594 47.3146 48.9531 48.5276 48.9531 50.0239C48.9531 51.5202 50.1594 52.7332 51.6473 52.7332Z" fill="white"/>
<path d="M52.7548 49.9558C53.2507 49.9558 53.6528 49.5515 53.6528 49.0527C53.6528 48.5539 53.2507 48.1496 52.7548 48.1496C52.2588 48.1496 51.8567 48.5539 51.8567 49.0527C51.8567 49.5515 52.2588 49.9558 52.7548 49.9558Z" fill="#3F3D56"/>
<path d="M44.8768 43.339C44.7583 40.4042 47.2735 37.9184 50.4948 37.7868C53.7161 37.6552 56.4236 39.9277 56.5421 42.8625C56.6607 45.7973 54.4215 46.4641 51.2002 46.5957C47.9789 46.7272 44.9954 46.2738 44.8768 43.339Z" fill="white"/>
<path d="M58.6509 51.7316C60.7727 51.2425 62.369 50.303 62.2163 49.6332C62.0636 48.9634 60.2198 48.8168 58.098 49.3059C55.9762 49.795 54.3799 50.7345 54.5326 51.4043C54.6852 52.0742 56.5291 52.2207 58.6509 51.7316Z" fill="#2F2E41"/>
<path d="M43.1768 54.3193C45.2986 53.8302 46.8949 52.8907 46.7422 52.2209C46.5896 51.5511 44.7457 51.4045 42.6239 51.8936C40.5021 52.3827 38.9058 53.3222 39.0584 53.992C39.2111 54.6619 41.055 54.8084 43.1768 54.3193Z" fill="#2F2E41"/>
<path d="M48.9303 55.087C48.8883 55.3204 48.8924 55.5598 48.9424 55.7916C48.9924 56.0234 49.0874 56.243 49.2218 56.4379C49.3562 56.6329 49.5274 56.7992 49.7258 56.9276C49.9241 57.056 50.1457 57.1438 50.3778 57.186C50.6099 57.2283 50.848 57.2241 51.0785 57.1739C51.309 57.1236 51.5274 57.0281 51.7212 56.893C51.9151 56.7578 52.0805 56.5856 52.2082 56.3861C52.3358 56.1866 52.4231 55.9639 52.4651 55.7304C52.6418 54.7489 51.8872 54.4015 50.911 54.2238C49.9349 54.0461 49.107 54.1054 48.9303 55.087Z" fill="white"/>
<path d="M75.8866 49.4662H57.4333V38.9017H75.8866V49.4662ZM57.6161 49.2825H75.7039V39.0855H57.6161V49.2825Z" fill="#3F3D56"/>
<path d="M42.0861 51.5791H25.6426V41.2902H42.0861V51.5791ZM25.8253 51.3954H41.9034V41.474H25.8253V51.3954Z" fill="#3F3D56"/>
<path d="M33.3248 47.629L33.309 47.4235C33.2619 46.9969 33.4033 46.5308 33.7961 46.0568C34.1497 45.6381 34.3461 45.33 34.3461 44.9745C34.3461 44.5716 34.0947 44.303 33.5997 44.2951C33.3166 44.2939 33.0399 44.3793 32.8062 44.54L32.6177 44.0423C32.877 43.8526 33.3248 43.7262 33.7411 43.7262C34.6446 43.7262 35.0531 44.2872 35.0531 44.8875C35.0531 45.4248 34.7546 45.8119 34.3775 46.2622C34.0318 46.673 33.9061 47.0206 33.9297 47.4235L33.9375 47.629L33.3248 47.629ZM33.1519 48.735C33.1477 48.6706 33.1568 48.6059 33.1787 48.5452C33.2006 48.4845 33.2347 48.429 33.279 48.3822C33.3233 48.3354 33.3768 48.2984 33.436 48.2734C33.4953 48.2485 33.5591 48.2362 33.6233 48.2373C33.8983 48.2373 34.0868 48.4426 34.0868 48.735C34.0894 48.7984 34.0792 48.8616 34.0569 48.9209C34.0346 48.9802 34.0006 49.0344 33.9569 49.0801C33.9133 49.1259 33.8609 49.1623 33.8029 49.1872C33.7448 49.212 33.6824 49.2249 33.6194 49.2249C33.5563 49.2249 33.4939 49.212 33.4359 49.1872C33.3779 49.1623 33.3255 49.1259 33.2818 49.0801C33.2382 49.0344 33.2041 48.9802 33.1818 48.9209C33.1595 48.8616 33.1493 48.7984 33.1519 48.735V48.735Z" fill="#D0CDE1"/>
<path d="M66.1204 45.3323L66.1047 45.1269C66.0576 44.7003 66.199 44.2342 66.5918 43.7602C66.9453 43.3414 67.1417 43.0334 67.1417 42.6778C67.1417 42.2749 66.8903 42.0063 66.3954 41.9984C66.1123 41.9973 65.8356 42.0827 65.6019 42.2433L65.4133 41.7456C65.6726 41.556 66.1204 41.4296 66.5368 41.4296C67.4403 41.4296 67.8488 41.9905 67.8488 42.5909C67.8488 43.1282 67.5502 43.5153 67.1731 43.9655C66.8275 44.3763 66.7018 44.724 66.7253 45.1269L66.7332 45.3323L66.1204 45.3323ZM65.9476 46.4384C65.9434 46.3739 65.9525 46.3093 65.9743 46.2486C65.9962 46.1878 66.0304 46.1323 66.0747 46.0855C66.119 46.0388 66.1724 46.0017 66.2317 45.9768C66.2909 45.9519 66.3547 45.9396 66.4189 45.9407C66.6939 45.9407 66.8825 46.146 66.8825 46.4384C66.8851 46.5017 66.8749 46.565 66.8526 46.6243C66.8303 46.6836 66.7962 46.7377 66.7526 46.7835C66.7089 46.8293 66.6565 46.8657 66.5985 46.8905C66.5405 46.9154 66.4781 46.9282 66.415 46.9282C66.352 46.9282 66.2896 46.9154 66.2315 46.8905C66.1735 46.8657 66.1211 46.8293 66.0775 46.7835C66.0338 46.7377 65.9998 46.6836 65.9775 46.6243C65.9552 46.565 65.945 46.5017 65.9476 46.4384V46.4384Z" fill="#D0CDE1"/>
<path d="M34.079 29.2055H21.1172V41.6043H34.079V29.2055Z" fill="#D0CDE1"/>
<path d="M32.6063 30.6866H22.5903V38.3888H32.6063V30.6866Z" fill="white"/>
<path d="M28.0281 39.2975H22.5801V39.5859H28.0281V39.2975Z" fill="#F2F2F2"/>
<path d="M28.0281 40.1626H22.5801V40.4509H28.0281V40.1626Z" fill="#F2F2F2"/>
<path d="M24.3723 35.6932C25.0057 35.6932 25.5192 35.1768 25.5192 34.5399C25.5192 33.9029 25.0057 33.3865 24.3723 33.3865C23.7388 33.3865 23.2253 33.9029 23.2253 34.5399C23.2253 35.1768 23.7388 35.6932 24.3723 35.6932Z" fill="#3F3D56"/>
<path d="M27.5981 35.6932C28.2316 35.6932 28.7451 35.1768 28.7451 34.5399C28.7451 33.9029 28.2316 33.3865 27.5981 33.3865C26.9647 33.3865 26.4512 33.9029 26.4512 34.5399C26.4512 35.1768 26.9647 35.6932 27.5981 35.6932Z" fill="#FBE8E9"/>
<path d="M30.824 35.6932C31.4574 35.6932 31.9709 35.1768 31.9709 34.5399C31.9709 33.9029 31.4574 33.3865 30.824 33.3865C30.1905 33.3865 29.677 33.9029 29.677 34.5399C29.677 35.1768 30.1905 35.6932 30.824 35.6932Z" fill="#E6E6E6"/>
<path d="M27.5981 30.503C27.9148 30.503 28.1716 30.2449 28.1716 29.9264C28.1716 29.6079 27.9148 29.3497 27.5981 29.3497C27.2814 29.3497 27.0247 29.6079 27.0247 29.9264C27.0247 30.2449 27.2814 30.503 27.5981 30.503Z" fill="#3F3D56"/>
<path d="M40.244 53.2133H27.2822V65.6121H40.244V53.2133Z" fill="#D0CDE1"/>
<path d="M38.7713 54.6945H28.7554V62.3967H38.7713V54.6945Z" fill="white"/>
<path d="M34.4706 55.9602H30.9592V59.4912H34.4706V55.9602Z" fill="#FBE8E9"/>
<path d="M32.3035 56.8432V61.1309H36.5672V56.8432H32.3035ZM36.3823 60.9449H32.4884V57.0292H36.3823V60.9449Z" fill="#3F3D56"/>
<path d="M34.1933 63.1611H28.7454V63.4495H34.1933V63.1611Z" fill="#F2F2F2"/>
<path d="M33.7632 54.5108C34.0799 54.5108 34.3366 54.2526 34.3366 53.9341C34.3366 53.6156 34.0799 53.3574 33.7632 53.3574C33.4464 53.3574 33.1897 53.6156 33.1897 53.9341C33.1897 54.2526 33.4464 54.5108 33.7632 54.5108Z" fill="#3F3D56"/>
<path d="M73.9913 49.5013H61.0295V61.9001H73.9913V49.5013Z" fill="#D0CDE1"/>
<path d="M72.5181 50.9825H62.5022V58.6847H72.5181V50.9825Z" fill="white"/>
<path d="M68.5876 57.0122H66.4329V57.6543H68.5876V57.0122Z" fill="#3F3D56"/>
<path d="M71.1927 52.0129H63.8281V52.2881H71.1927V52.0129Z" fill="#3F3D56"/>
<path d="M71.1927 52.8843H63.8281V53.1595H71.1927V52.8843Z" fill="#3F3D56"/>
<path d="M71.1927 53.7558H63.8281V54.031H71.1927V53.7558Z" fill="#3F3D56"/>
<path d="M71.1927 54.6272H63.8281V54.9024H71.1927V54.6272Z" fill="#3F3D56"/>
<path d="M71.1927 55.4987H63.8281V55.7738H71.1927V55.4987Z" fill="#3F3D56"/>
<path d="M67.9404 59.4492H62.4924V59.7376H67.9404V59.4492Z" fill="#F2F2F2"/>
<path d="M70.0909 60.17H62.4924V60.4584H70.0909V60.17Z" fill="#F2F2F2"/>
<path d="M67.5102 50.7989C67.827 50.7989 68.0837 50.5407 68.0837 50.2222C68.0837 49.9037 67.827 49.6455 67.5102 49.6455C67.1935 49.6455 66.9368 49.9037 66.9368 50.2222C66.9368 50.5407 67.1935 50.7989 67.5102 50.7989Z" fill="#3F3D56"/>
</g>
<defs>
<clipPath id="clip0">
<rect width="86" height="40" fill="white" transform="translate(7 28)"/>
</clipPath>
</defs>
</svg>
