<svg width="100" height="97" viewBox="0 0 100 97" fill="none" xmlns="http://www.w3.org/2000/svg">
<path d="M39.4375 3.67408C41.4265 2.60562 42.4209 2.0714 43.413 1.68129C47.6466 0.0165844 52.3534 0.0165844 56.587 1.68129C57.5791 2.0714 58.5735 2.60562 60.5625 3.67408L88.2425 18.5435C90.4442 19.7262 91.5451 20.3176 92.4922 20.9971C96.5426 23.9028 99.2067 28.358 99.8496 33.3012C100 34.4571 100 35.7068 100 38.206V62.5609C100 65.3472 100 66.7404 99.8191 68.0067C99.0434 73.4363 95.8346 78.216 91.103 80.9897C89.9994 81.6366 88.7099 82.1641 86.1311 83.2191L58.4511 94.5427C56.8427 95.2007 56.0385 95.5297 55.2354 95.7738C51.8223 96.8114 48.1777 96.8114 44.7646 95.7738C43.9615 95.5297 43.1573 95.2007 41.5489 94.5427L13.8689 83.2191C11.2901 82.1641 10.0006 81.6366 8.89705 80.9897C4.16541 78.216 0.956564 73.4363 0.18091 68.0067C0 66.7404 0 65.3472 0 62.5609V38.2061C0 35.7068 0 34.4571 0.150352 33.3012C0.793299 28.358 3.45737 23.9028 7.50776 20.9971C8.45493 20.3176 9.55578 19.7262 11.7575 18.5435L39.4375 3.67408Z" fill="#D4F8F8"/>
<g clip-path="url(#clip0)">
<path d="M51.216 66.3131C50.9878 66.3131 50.7573 66.3095 50.5311 66.3024L50.5362 66.1379C50.8611 66.148 51.1926 66.1508 51.519 66.1463L51.5212 66.311C51.4196 66.3124 51.3179 66.3131 51.216 66.3131ZM52.5108 66.2749L52.5012 66.1105C52.8265 66.0913 53.156 66.0643 53.4806 66.0303L53.4977 66.194C53.1707 66.2284 52.8387 66.2556 52.5108 66.2749V66.2749ZM49.5424 66.2493C49.2143 66.2241 48.8828 66.1911 48.557 66.1511L48.577 65.9877C48.9004 66.0273 49.2293 66.0601 49.5549 66.0851L49.5424 66.2493ZM54.4799 66.0682L54.4552 65.9054C54.7785 65.8563 55.1042 65.7993 55.4231 65.7358L55.4551 65.8973C55.1337 65.9612 54.8056 66.0187 54.4799 66.0682V66.0682ZM47.5772 66.0079C47.2531 65.9529 46.926 65.8897 46.6049 65.8199L46.6398 65.6589C46.9584 65.7283 47.283 65.791 47.6047 65.8455L47.5772 66.0079ZM56.4218 65.6817L56.3823 65.5218C56.6996 65.4433 57.0186 65.3564 57.3306 65.2638L57.3774 65.4217C57.063 65.5151 56.7415 65.6026 56.4218 65.6817V65.6817ZM45.6423 65.5873C45.3244 65.5026 45.0045 65.4095 44.6915 65.3103L44.741 65.1534C45.0517 65.2517 45.3692 65.3441 45.6846 65.4281L45.6423 65.5873ZM58.32 65.1178L58.266 64.9623C58.5739 64.8551 58.8836 64.7392 59.1866 64.6178L59.2476 64.7708C58.9424 64.8931 58.6303 65.0098 58.32 65.1178ZM43.7519 64.9888C43.4432 64.8752 43.1325 64.7526 42.8286 64.6244L42.8924 64.4726C43.194 64.5998 43.5023 64.7215 43.8087 64.8343L43.7519 64.9888ZM60.1563 64.3821L60.0882 64.2322C60.3839 64.0977 60.6811 63.9541 60.9716 63.8054L61.0464 63.9521C60.7537 64.1019 60.4542 64.2465 60.1563 64.3821V64.3821ZM41.9233 64.2179C41.6265 64.0763 41.3286 63.9257 41.0379 63.7702L41.1154 63.6249C41.4039 63.7793 41.6995 63.9287 41.994 64.0693L41.9233 64.2179ZM61.916 63.4814L61.8346 63.3384C62.1182 63.1764 62.4013 63.0061 62.6759 62.8321L62.7637 62.9712C62.487 63.1466 62.2019 63.3182 61.916 63.4814V63.4814ZM40.1743 63.2823C39.892 63.1141 39.6093 62.9368 39.3342 62.7553L39.4247 62.6178C39.6977 62.798 39.9782 62.9739 40.2584 63.1408L40.1743 63.2823ZM63.5874 62.4227L63.4933 62.2877C63.7603 62.1009 64.0268 61.9053 64.2853 61.7063L64.3855 61.8369C64.1251 62.0374 63.8565 62.2345 63.5874 62.4227V62.4227ZM38.5192 62.1907C38.2537 61.9977 37.9885 61.7954 37.7309 61.5895L37.8336 61.4608C38.0892 61.6652 38.3524 61.8659 38.6158 62.0574L38.5192 62.1907ZM65.1562 61.2153L65.0502 61.0894C65.2991 60.8791 65.5468 60.66 65.7865 60.438L65.8982 60.559C65.6567 60.7826 65.4071 61.0034 65.1562 61.2153V61.2153ZM36.971 60.953C36.7238 60.7362 36.4782 60.5107 36.241 60.2828L36.3549 60.1639C36.5903 60.3902 36.834 60.614 37.0794 60.8292L36.971 60.953ZM66.6096 59.8693L66.4925 59.7536C66.722 59.5208 66.9489 59.2799 67.167 59.0376L67.2892 59.1478C67.0695 59.392 66.8408 59.6347 66.6096 59.8693V59.8693ZM35.5424 59.5801C35.3155 59.3413 35.0915 59.0944 34.8765 58.8464L35.0008 58.7385C35.2141 58.9846 35.4364 59.2296 35.6616 59.4666L35.5424 59.5801ZM67.9353 58.396L67.8083 58.2915C68.0155 58.0389 68.2196 57.7782 68.415 57.5167L68.5467 57.6153C68.3499 57.8789 68.1442 58.1416 67.9353 58.396V58.396ZM34.2449 58.0833C34.0411 57.8256 33.8406 57.5595 33.6487 57.2925L33.7821 57.1963C33.9726 57.4613 34.1716 57.7253 34.3738 57.9812L34.2449 58.0833ZM69.1219 56.8072L68.9858 56.7148C69.1693 56.4443 69.3489 56.166 69.5197 55.8874L69.66 55.9736C69.4877 56.2543 69.3067 56.5348 69.1219 56.8072V56.8072ZM33.0893 56.4755C32.9101 56.2004 32.7347 55.9173 32.5679 55.6339L32.7096 55.5503C32.8751 55.8315 33.0492 56.1125 33.227 56.3854L33.0893 56.4755ZM70.1593 55.1159L70.0154 55.0363C70.1733 54.7502 70.3267 54.4563 70.4715 54.1629L70.619 54.2359C70.4731 54.5315 70.3184 54.8276 70.1593 55.1159V55.1159ZM32.0856 54.7696C31.9322 54.4793 31.7835 54.1815 31.6436 53.8844L31.7923 53.8141C31.9312 54.1089 32.0788 54.4045 32.231 54.6926L32.0856 54.7696ZM71.0377 53.3355L70.887 53.2694C71.0181 52.9697 71.1439 52.6628 71.2611 52.3572L71.4147 52.4162C71.2966 52.7242 71.1697 53.0335 71.0377 53.3355V53.3355ZM31.2426 52.9802C31.1165 52.6772 30.9958 52.3672 30.8837 52.0587L31.0383 52.0024C31.1495 52.3085 31.2693 52.6161 31.3944 52.9168L31.2426 52.9802ZM71.7489 51.4802L71.5928 51.4284C71.6954 51.1187 71.7923 50.8022 71.8806 50.4876L72.039 50.5321C71.9499 50.8492 71.8523 51.1682 71.7489 51.4802V51.4802ZM30.5669 51.1193C30.4691 50.8054 30.3771 50.4848 30.2936 50.1662L30.4527 50.1244C30.5355 50.4406 30.6268 50.7588 30.7239 51.0702L30.5669 51.1193ZM72.285 49.5716L72.1248 49.5343C72.1984 49.2169 72.2657 48.8928 72.3249 48.571L72.4867 48.6008C72.4271 48.9251 72.3592 49.2517 72.285 49.5716V49.5716ZM30.0646 49.2016C29.996 48.8799 29.9339 48.5522 29.8801 48.2274L30.0423 48.2004C30.0958 48.5228 30.1574 48.848 30.2254 49.1672L30.0646 49.2016ZM72.6434 47.6219L72.4804 47.5996C72.5246 47.277 72.562 46.9481 72.5915 46.622L72.7553 46.6368C72.7256 46.9655 72.6879 47.2969 72.6434 47.6219V47.6219ZM29.7404 47.2459C29.7016 46.9199 29.6698 46.5879 29.6458 46.2591L29.8098 46.247C29.8336 46.5734 29.8653 46.9028 29.9038 47.2264L29.7404 47.2459ZM72.8223 45.6477L72.658 45.6403C72.6726 45.3139 72.68 44.983 72.68 44.6566H72.8445C72.8445 44.9854 72.8371 45.3189 72.8223 45.6477L72.8223 45.6477ZM29.5959 45.2687C29.5903 45.0668 29.5874 44.8608 29.5874 44.6566C29.5874 44.5298 29.5885 44.4033 29.5907 44.2771L29.7551 44.28C29.753 44.4053 29.7519 44.5308 29.7519 44.6566C29.7519 44.8593 29.7548 45.0638 29.7603 45.2642L29.5959 45.2687ZM72.6788 44.4268C72.6755 44.1003 72.6645 43.7693 72.6465 43.4431L72.8106 43.4339C72.8289 43.7627 72.8399 44.0961 72.8433 44.425L72.6788 44.4268ZM29.7942 43.2968L29.63 43.2865C29.6505 42.9574 29.6789 42.6251 29.7142 42.2986L29.8777 42.3164C29.8426 42.6404 29.8146 42.9702 29.7942 43.2968ZM72.5695 42.4622C72.5367 42.1376 72.4958 41.8091 72.4481 41.4858L72.6108 41.4618C72.6588 41.7875 72.7 42.1185 72.7332 42.4456L72.5695 42.4622ZM30.0057 41.3409L29.8432 41.3157C29.8936 40.9899 29.9521 40.6615 30.0172 40.3396L30.1784 40.3722C30.1138 40.6917 30.0557 41.0176 30.0057 41.3409ZM72.2821 40.5161C72.2194 40.1949 72.1486 39.8715 72.0717 39.555L72.2315 39.5161C72.309 39.835 72.3803 40.1609 72.4435 40.4845L72.2821 40.5161ZM30.3953 39.4126L30.2358 39.3726C30.3157 39.0536 30.4041 38.732 30.4987 38.4166L30.6562 38.464C30.5624 38.7769 30.4746 39.0961 30.3953 39.4126ZM71.8173 38.6045C71.7256 38.291 71.6253 37.9755 71.5194 37.6669L71.6749 37.6133C71.7817 37.9243 71.8827 38.2423 71.9752 38.5582L71.8173 38.6045ZM30.9615 37.5258L30.8064 37.4712C30.9157 37.1599 31.0337 36.8471 31.1571 36.5415L31.3096 36.6032C31.1871 36.9065 31.07 37.2169 30.9615 37.5258ZM71.1786 36.744C71.0586 36.4409 70.9301 36.1367 70.7966 35.8399L70.9466 35.7723C71.0811 36.0714 71.2106 36.3779 71.3315 36.6833L71.1786 36.744ZM31.6997 35.698L31.5503 35.6292C31.6876 35.3297 31.8338 35.0293 31.9848 34.7364L32.131 34.8119C31.9811 35.1026 31.8361 35.4007 31.6997 35.698ZM70.3736 34.954C70.2264 34.6632 70.0704 34.3719 69.9101 34.0881L70.0532 34.007C70.2148 34.293 70.3719 34.5865 70.5203 34.8795L70.3736 34.954ZM32.6025 33.9469L32.4599 33.8647C32.624 33.5795 32.797 33.2939 32.9742 33.0161L33.1128 33.1047C32.937 33.3804 32.7652 33.6638 32.6025 33.9469ZM69.4073 33.2441C69.2335 32.9671 69.0515 32.6911 68.8664 32.4238L69.0015 32.33C69.1881 32.5993 69.3715 32.8774 69.5466 33.1565L69.4073 33.2441ZM33.6611 32.287L33.5267 32.1921C33.7163 31.9228 33.9145 31.6544 34.116 31.3944L34.246 31.4953C34.046 31.7534 33.8492 32.0198 33.6611 32.287ZM68.2885 31.6289C68.0903 31.3689 67.8839 31.1105 67.6749 30.8608L67.8009 30.755C68.0115 31.0067 68.2195 31.267 68.4193 31.5289L68.2885 31.6289ZM34.8662 30.7314L34.741 30.6246C34.9537 30.3744 35.1755 30.1253 35.4001 29.8843L35.5203 29.9966C35.2975 30.2358 35.0774 30.483 34.8662 30.7314ZM67.0269 30.1214C66.806 29.8806 66.5768 29.6419 66.3458 29.4121L66.4618 29.2952C66.6945 29.5269 66.9254 29.7673 67.148 30.0099L67.0269 30.1214ZM36.207 29.2927L36.092 29.1749C36.3272 28.9445 36.5706 28.7168 36.8153 28.498L36.9249 28.6208C36.682 28.838 36.4405 29.064 36.207 29.2927V29.2927ZM65.6332 28.7344C65.3911 28.5145 65.1411 28.2976 64.8902 28.0898L64.9951 27.9629C65.2478 28.1723 65.4997 28.3908 65.7437 28.6124L65.6332 28.7344ZM37.6724 27.9824L37.5685 27.8547C37.8229 27.6473 38.0858 27.4427 38.35 27.2467L38.4479 27.379C38.1858 27.5736 37.9248 27.7766 37.6724 27.9824V27.9824ZM64.1186 27.4796C63.8573 27.2826 63.5885 27.0893 63.3196 26.9051L63.4125 26.7692C63.6834 26.9548 63.9542 27.1495 64.2175 27.348L64.1186 27.4796ZM39.2499 26.8117L39.1581 26.6751C39.4303 26.4917 39.7106 26.3121 39.9912 26.1411L40.0766 26.2819C39.7982 26.4515 39.5201 26.6297 39.2499 26.8117V26.8117ZM62.4952 26.3678C62.2172 26.1955 61.9318 26.0276 61.6468 25.8687L61.7268 25.7248C62.014 25.885 62.3016 26.0542 62.5817 26.2277L62.4952 26.3678ZM40.9265 25.7905L40.8476 25.646C41.1356 25.4882 41.4309 25.3351 41.7254 25.1909L41.7976 25.3389C41.5055 25.482 41.2124 25.6339 40.9265 25.7905ZM60.7763 25.409C60.4836 25.263 60.1838 25.1219 59.8852 24.9898L59.9517 24.8392C60.2526 24.9723 60.5548 25.1145 60.8497 25.2616L60.7763 25.409ZM42.6882 24.9277L42.6228 24.7766C42.9238 24.646 43.2317 24.5207 43.538 24.4042L43.5964 24.5582C43.2925 24.6738 42.9869 24.7981 42.6882 24.9277H42.6882ZM58.9756 24.612C58.671 24.4937 58.3593 24.3809 58.0491 24.2767L58.1015 24.1205C58.414 24.2256 58.7281 24.3393 59.035 24.4585L58.9756 24.612ZM44.5228 24.2302L44.4716 24.0737C44.7841 23.9711 45.1031 23.8745 45.4194 23.7866L45.4634 23.9453C45.1494 24.0325 44.833 24.1283 44.5228 24.2302V24.2302ZM57.1104 23.9853C56.7967 23.8958 56.4768 23.8124 56.1595 23.7375L56.1972 23.5772C56.517 23.6527 56.8394 23.7367 57.1556 23.8269L57.1104 23.9853ZM46.4161 23.7041L46.3795 23.5435C46.6999 23.4702 47.0263 23.4034 47.3496 23.3451L47.3789 23.5071C47.058 23.5651 46.7341 23.6313 46.4161 23.7041ZM55.1981 23.5339C54.8778 23.4737 54.5516 23.4201 54.2284 23.3747L54.2512 23.2116C54.5769 23.2574 54.9057 23.3114 55.2284 23.372L55.1981 23.5339ZM48.3497 23.3547L48.3279 23.1914C48.6535 23.1479 48.9846 23.1113 49.312 23.0828L49.3263 23.2468C49.0014 23.2752 48.6729 23.3115 48.3497 23.3547V23.3547ZM53.2524 23.2602C52.9284 23.2296 52.5987 23.2061 52.2722 23.1903L52.2802 23.0257C52.6091 23.0417 52.9414 23.0654 53.2678 23.0962L53.2524 23.2602ZM50.3071 23.1837L50.3002 23.0191C50.6025 23.0065 50.9105 23.0001 51.216 23L51.2904 23.0001L51.2899 23.1648L51.216 23.1647C50.9129 23.1648 50.607 23.1712 50.3071 23.1837V23.1837Z" fill="#3F3D56"/>
<path d="M72.2837 62.63C72.0885 62.63 71.8978 62.572 71.7355 62.4634C71.5732 62.3549 71.4467 62.2005 71.372 62.02C71.2973 61.8394 71.2778 61.6407 71.3158 61.449C71.3539 61.2574 71.4479 61.0813 71.5859 60.9431C71.7239 60.8049 71.8998 60.7108 72.0912 60.6727C72.2826 60.6345 72.4811 60.6541 72.6614 60.7289C72.8417 60.8037 72.9958 60.9303 73.1043 61.0928C73.2127 61.2553 73.2706 61.4464 73.2706 61.6418C73.2703 61.9038 73.1662 62.155 72.9812 62.3402C72.7962 62.5255 72.5454 62.6297 72.2837 62.63V62.63ZM72.2837 60.8184C72.1211 60.8184 71.9621 60.8667 71.8268 60.9572C71.6916 61.0476 71.5862 61.1762 71.524 61.3267C71.4617 61.4772 71.4454 61.6427 71.4772 61.8025C71.5089 61.9622 71.5872 62.1089 71.7022 62.2241C71.8172 62.3393 71.9638 62.4177 72.1233 62.4495C72.2828 62.4812 72.4482 62.4649 72.5984 62.4026C72.7487 62.3403 72.8771 62.2347 72.9675 62.0993C73.0579 61.9639 73.1061 61.8047 73.1061 61.6418C73.1059 61.4235 73.0191 61.2142 72.865 61.0598C72.7108 60.9055 72.5018 60.8186 72.2837 60.8184V60.8184Z" fill="#2F2E41"/>
<path d="M46.0337 37.2793V42.6876C46.0335 42.7376 46.0136 42.7855 45.9783 42.8208C45.9431 42.8562 45.8952 42.8761 45.8453 42.8762H45.7113V71.0503C45.7112 71.83 45.4019 72.5777 44.8513 73.1289C44.3008 73.6802 43.554 73.99 42.7754 73.99H25.1938C24.8083 73.99 24.4266 73.9139 24.0704 73.7661C23.7143 73.6184 23.3907 73.4018 23.1182 73.1289C22.8456 72.8559 22.6294 72.5318 22.482 72.1752C22.3345 71.8185 22.2586 71.4363 22.2587 71.0503V43.8643H22.1617C22.1264 43.8644 22.0927 43.8505 22.0677 43.8256C22.0427 43.8008 22.0286 43.767 22.0284 43.7318V40.6537C22.0284 40.6362 22.0319 40.6189 22.0386 40.6027C22.0453 40.5865 22.0551 40.5718 22.0674 40.5594C22.0798 40.547 22.0945 40.5372 22.1107 40.5305C22.1268 40.5238 22.1442 40.5203 22.1617 40.5203H22.2587V39.3609H22.1608C22.1239 39.3608 22.0885 39.346 22.0624 39.3197C22.0364 39.2935 22.0218 39.258 22.0219 39.2209V36.1849C22.0219 36.148 22.0366 36.1127 22.0627 36.0866C22.0887 36.0605 22.124 36.0458 22.1608 36.0457H22.2587V34.4631H22.1592C22.143 34.4631 22.1269 34.4599 22.112 34.4537C22.097 34.4475 22.0834 34.4384 22.0719 34.427C22.0604 34.4155 22.0514 34.4019 22.0452 34.3869C22.039 34.3719 22.0358 34.3558 22.0358 34.3396V32.6828C22.0358 32.65 22.0487 32.6184 22.0718 32.5951C22.095 32.5718 22.1264 32.5586 22.1592 32.5585H22.2587V29.2038C22.2587 28.4243 22.568 27.6768 23.1184 27.1257C23.6688 26.5746 24.4154 26.2649 25.1938 26.2649H42.7754C43.5539 26.2649 44.3005 26.5745 44.8511 27.1256C45.4017 27.6767 45.7111 28.4242 45.7113 29.2038V37.0907H45.8453C45.8952 37.0908 45.9431 37.1107 45.9783 37.1461C46.0136 37.1814 46.0335 37.2293 46.0337 37.2793V37.2793Z" fill="#3F3D56"/>
<path d="M34.8316 27.7723H31.9747C31.8592 27.7723 31.7656 27.866 31.7656 27.9816V28.2289C31.7656 28.3445 31.8592 28.4382 31.9747 28.4382H34.8316C34.947 28.4382 35.0406 28.3445 35.0406 28.2289V27.9816C35.0406 27.866 34.947 27.7723 34.8316 27.7723Z" fill="#E6E8EC"/>
<path d="M35.913 28.4829C36.1213 28.4829 36.2902 28.3138 36.2902 28.1052C36.2902 27.8966 36.1213 27.7275 35.913 27.7275C35.7046 27.7275 35.5358 27.8966 35.5358 28.1052C35.5358 28.3138 35.7046 28.4829 35.913 28.4829Z" fill="#E6E8EC"/>
<path d="M44.3054 29.7851V71.2941C44.3051 71.7886 44.1088 72.2628 43.7595 72.6124C43.4102 72.962 42.9365 73.1584 42.4427 73.1584H25.6127C25.368 73.1588 25.1257 73.1109 24.8996 73.0173C24.6734 72.9238 24.468 72.7865 24.2949 72.6133C24.1219 72.4401 23.9847 72.2345 23.8912 72.0081C23.7977 71.7817 23.7497 71.5391 23.75 71.2941V29.7851C23.75 29.5402 23.7982 29.2977 23.8918 29.0714C23.9854 28.8451 24.1226 28.6395 24.2955 28.4663C24.4685 28.2931 24.6739 28.1557 24.8999 28.062C25.1259 27.9683 25.3681 27.92 25.6127 27.92H28.1316V28.2437C28.1316 28.651 28.2932 29.0416 28.5809 29.3296C28.8685 29.6176 29.2586 29.7794 29.6654 29.7794H38.2247C38.6315 29.7794 39.0216 29.6176 39.3092 29.3296C39.5968 29.0416 39.7584 28.651 39.7584 28.2437V27.92H42.4427C42.6873 27.92 42.9296 27.9682 43.1556 28.0619C43.3816 28.1556 43.587 28.2929 43.76 28.4661C43.9329 28.6393 44.0702 28.845 44.1637 29.0713C44.2573 29.2976 44.3054 29.5402 44.3054 29.7851V29.7851Z" fill="#F4F6E2"/>
<path opacity="0.2" d="M43.6507 41.5275H24.5715V50.8324H43.6507V41.5275Z" fill="black"/>
<path d="M73.5853 30.905H54.5061V40.2099H73.5853V30.905Z" fill="#F2F2F2"/>
<path d="M43.6507 55.6313H24.5715V64.9363H43.6507V55.6313Z" fill="#3F3D56"/>
<path d="M41.6771 34.6335C42.5855 34.6335 43.3219 33.8962 43.3219 32.9866C43.3219 32.0771 42.5855 31.3397 41.6771 31.3397C40.7687 31.3397 40.0323 32.0771 40.0323 32.9866C40.0323 33.8962 40.7687 34.6335 41.6771 34.6335Z" fill="white"/>
<path d="M42.4172 32.9336H41.7298V32.2455H41.6242V32.9336H40.9369V33.0395H41.6242V33.7277H41.7298V33.0395H42.4172V32.9336Z" fill="#3F3D56"/>
<path d="M71.4471 29.6699H52.3679V38.9748H71.4471V29.6699Z" fill="#3F3D56"/>
<path d="M60.8851 35.9174C61.3845 37.766 63.0953 38.9109 63.0953 38.9109C63.0953 38.9109 63.9962 37.0586 63.4968 35.21C62.9973 33.3613 61.2866 32.2164 61.2866 32.2164C61.2866 32.2164 60.3856 34.0688 60.8851 35.9174Z" fill="white"/>
<path d="M61.6189 35.5201C62.9894 36.8559 63.1568 38.9094 63.1568 38.9094C63.1568 38.9094 61.1022 38.7971 59.7317 37.4612C58.3612 36.1254 58.1938 34.0719 58.1938 34.0719C58.1938 34.0719 60.2484 34.1842 61.6189 35.5201Z" fill="#F4F6E2"/>
<path d="M32.2534 62.0205C32.7528 63.8692 34.4635 65.0141 34.4635 65.0141C34.4635 65.0141 35.3645 63.1618 34.865 61.3131C34.3656 59.4645 32.6549 58.3196 32.6549 58.3196C32.6549 58.3196 31.7539 60.1719 32.2534 62.0205Z" fill="white"/>
<path d="M32.9872 61.6232C34.3577 62.959 34.5251 65.0125 34.5251 65.0125C34.5251 65.0125 32.4705 64.9002 31.1 63.5644C29.7295 62.2285 29.5621 60.175 29.5621 60.175C29.5621 60.175 31.6167 60.2874 32.9872 61.6232Z" fill="#F4F6E2"/>
<path d="M36.7969 62.0205C36.2975 63.8692 34.5868 65.0141 34.5868 65.0141C34.5868 65.0141 33.6858 63.1618 34.1852 61.3131C34.6847 59.4645 36.3954 58.3196 36.3954 58.3196C36.3954 58.3196 37.2963 60.1719 36.7969 62.0205Z" fill="white"/>
<path d="M36.063 61.6232C34.6925 62.959 34.5251 65.0125 34.5251 65.0125C34.5251 65.0125 36.5797 64.9002 37.9502 63.5644C39.3207 62.2285 39.4881 60.175 39.4881 60.175C39.4881 60.175 37.4335 60.2874 36.063 61.6232Z" fill="#F4F6E2"/>
<path d="M56.6443 50.7139H55.0209V49.0884H56.6443V50.7139ZM55.1458 50.5889H56.5195V49.2134H55.1458V50.5889Z" fill="#3F3D56"/>
<path d="M14.0158 60.7665L12.9084 59.5778L14.0956 58.469L15.203 59.6577L14.0158 60.7665ZM13.0849 59.5839L14.0219 60.5898L15.0265 59.6516L14.0895 58.6457L13.0849 59.5839Z" fill="#2F2E41"/>
<path d="M14.8931 35.1899C15.3508 35.1899 15.7219 34.8183 15.7219 34.3599C15.7219 33.9016 15.3508 33.53 14.8931 33.53C14.4353 33.53 14.0642 33.9016 14.0642 34.3599C14.0642 34.8183 14.4353 35.1899 14.8931 35.1899Z" fill="#3F3D56"/>
<path d="M14.893 36.7575C14.4194 36.7575 13.9565 36.6169 13.5627 36.3534C13.1689 36.09 12.862 35.7155 12.6808 35.2774C12.4996 34.8394 12.4522 34.3573 12.5445 33.8922C12.6369 33.4271 12.865 32.9999 13.1998 32.6646C13.5347 32.3293 13.9614 32.101 14.4258 32.0085C14.8903 31.916 15.3718 31.9634 15.8093 32.1449C16.2468 32.3264 16.6208 32.6337 16.8839 33.0279C17.147 33.4222 17.2874 33.8858 17.2874 34.3599C17.2867 34.9956 17.0342 35.605 16.5853 36.0545C16.1364 36.504 15.5278 36.7568 14.893 36.7575V36.7575ZM14.893 32.1468C14.4558 32.1468 14.0285 32.2766 13.665 32.5198C13.3016 32.763 13.0183 33.1086 12.851 33.513C12.6837 33.9174 12.6399 34.3624 12.7252 34.7917C12.8105 35.221 13.021 35.6153 13.3301 35.9249C13.6392 36.2344 14.033 36.4451 14.4618 36.5305C14.8905 36.6159 15.3349 36.5721 15.7388 36.4046C16.1427 36.2371 16.4879 35.9534 16.7307 35.5895C16.9736 35.2255 17.1032 34.7977 17.1032 34.3599C17.1025 33.7732 16.8695 33.2107 16.4551 32.7958C16.0408 32.3809 15.479 32.1475 14.893 32.1468V32.1468Z" fill="#2F2E41"/>
<path d="M91.5132 73.832H6V73.9967H91.5132V73.832Z" fill="#3F3D56"/>
<path d="M47.7627 40.0453H28.6835V49.3502H47.7627V40.0453Z" fill="#3F3D56"/>
<path d="M38.3174 43.2356H38.153V49.3629H38.3174V43.2356Z" fill="white"/>
<path d="M38.2352 44.1844C38.7132 44.1844 39.1006 43.7965 39.1006 43.3179C39.1006 42.8394 38.7132 42.4514 38.2352 42.4514C37.7573 42.4514 37.3699 42.8394 37.3699 43.3179C37.3699 43.7965 37.7573 44.1844 38.2352 44.1844Z" fill="#F4F6E2"/>
<path d="M38.2352 47.0121C38.2352 47.0121 38.1116 44.3497 35.5773 44.6592Z" fill="white"/>
<path d="M64.7206 65.3575L54.1373 68.6727L40.9721 60.3544L40.9715 60.3538L40.9283 60.3272L40.9212 60.3224L40.8166 60.2567L39.5631 59.467C39.5655 59.4457 39.5684 59.4249 39.5726 59.4048C39.5918 59.3072 39.6362 59.2164 39.7015 59.1414C39.7242 59.1145 39.7491 59.0895 39.776 59.0668H39.7766C39.7884 59.0567 39.8008 59.0466 39.8138 59.0372C39.8268 59.0271 39.8404 59.0176 39.8546 59.0088C40.097 58.846 40.4624 58.7767 40.8432 58.756C41.6654 58.7169 42.4836 58.8945 43.2158 59.271C44.6957 60.0205 47.8766 61.4952 48.3727 60.5918C49.023 59.4078 41.6325 46.2059 41.6325 46.2059C41.0241 44.6401 41.4693 44.1286 41.7484 43.9675C41.7566 43.9628 41.7649 43.9581 41.7726 43.9539C41.8022 43.9387 41.8328 43.9256 41.8642 43.9149C41.8807 43.9089 41.8975 43.9039 41.9145 43.9001C41.919 43.8988 41.9235 43.8978 41.9281 43.8971L42.9084 45.2019L42.9232 45.2214L42.9758 45.2919L42.9917 45.3132L48.9344 53.2213C58.0395 48.3076 61.1731 61.4502 61.1731 61.4502L64.7206 65.3575Z" fill="#FBBEBE"/>
<path d="M42.9917 45.3131C42.9701 45.3577 42.9361 45.3951 42.8939 45.4208C42.8516 45.4466 42.8028 45.4595 42.7534 45.4582C42.7206 45.4581 42.688 45.4537 42.6564 45.4452C42.4365 45.386 42.1816 45.1444 41.9913 44.8147C41.8056 44.4926 41.7293 44.1688 41.7725 43.9539C41.8021 43.9387 41.8327 43.9256 41.8641 43.9148C41.8806 43.9089 41.8974 43.9039 41.9144 43.9C41.8381 44.0498 41.8836 44.3902 42.0941 44.7555C42.2662 45.0544 42.4991 45.2806 42.6866 45.3303C42.7095 45.3399 42.7342 45.344 42.759 45.3424C42.7837 45.3408 42.8078 45.3335 42.8292 45.3211C42.8507 45.3087 42.869 45.2914 42.8827 45.2707C42.8964 45.2501 42.9052 45.2265 42.9083 45.2018L42.9231 45.2214L42.9757 45.2918L42.9917 45.3131Z" fill="#3F3D56"/>
<path d="M40.9282 60.3272L40.9211 60.3225L40.8165 60.2568C40.8171 60.088 40.6894 59.8116 40.4074 59.5339C40.1691 59.3013 39.8924 59.1485 39.7014 59.1414C39.7241 59.1145 39.749 59.0896 39.7759 59.0668H39.7765C39.7883 59.0568 39.8007 59.0467 39.8137 59.0372C40.0712 59.1133 40.3043 59.2553 40.4901 59.4493C40.7999 59.7542 40.9702 60.1017 40.9282 60.3272Z" fill="#3F3D56"/>
<path d="M83.94 60.3175C86.2634 67.3188 85.4474 73.8926 85.4474 73.8926C85.4474 73.8926 80.8645 69.115 78.5412 62.1137C76.2178 55.1124 77.0338 48.5386 77.0338 48.5386C77.0338 48.5386 81.6167 53.3162 83.94 60.3175Z" fill="#F4F6E2"/>
<path d="M86.9549 60.3175C84.6315 67.3188 85.4475 73.8926 85.4475 73.8926C85.4475 73.8926 90.0304 69.115 92.3538 62.1137C94.6771 55.1124 93.8612 48.5386 93.8612 48.5386C93.8612 48.5386 89.2783 53.3162 86.9549 60.3175Z" fill="#F4F6E2"/>
<path d="M87.8907 60.3932C88.0464 67.7693 85.3287 73.809 85.3287 73.809C85.3287 73.809 82.3586 67.8897 82.2029 60.5136C82.0471 53.1376 84.7648 47.0979 84.7648 47.0979C84.7648 47.0979 87.7349 53.0172 87.8907 60.3932Z" fill="#3F3D56"/>
<path d="M85.0467 54.5965C85.445 54.5965 85.7679 54.2732 85.7679 53.8744C85.7679 53.4756 85.445 53.1523 85.0467 53.1523C84.6484 53.1523 84.3256 53.4756 84.3256 53.8744C84.3256 54.2732 84.6484 54.5965 85.0467 54.5965Z" fill="#F4F6E2"/>
<path d="M83.6445 60.0523C83.8658 60.0523 84.0452 59.8727 84.0452 59.6512C84.0452 59.4296 83.8658 59.25 83.6445 59.25C83.4233 59.25 83.2439 59.4296 83.2439 59.6512C83.2439 59.8727 83.4233 60.0523 83.6445 60.0523Z" fill="#F4F6E2"/>
<path d="M78.7567 56.0809C78.978 56.0809 79.1574 55.9013 79.1574 55.6797C79.1574 55.4582 78.978 55.2786 78.7567 55.2786C78.5355 55.2786 78.3561 55.4582 78.3561 55.6797C78.3561 55.9013 78.5355 56.0809 78.7567 56.0809Z" fill="#3F3D56"/>
<path d="M92.8993 52.1896C93.1206 52.1896 93.2999 52.01 93.2999 51.7885C93.2999 51.5669 93.1206 51.3873 92.8993 51.3873C92.678 51.3873 92.4987 51.5669 92.4987 51.7885C92.4987 52.01 92.678 52.1896 92.8993 52.1896Z" fill="#3F3D56"/>
<path d="M80.8401 59.8517C81.0614 59.8517 81.2407 59.6721 81.2407 59.4506C81.2407 59.229 81.0614 59.0494 80.8401 59.0494C80.6188 59.0494 80.4395 59.229 80.4395 59.4506C80.4395 59.6721 80.6188 59.8517 80.8401 59.8517Z" fill="#3F3D56"/>
<path d="M89.2534 57.525C89.4747 57.525 89.6541 57.3454 89.6541 57.1238C89.6541 56.9023 89.4747 56.7227 89.2534 56.7227C89.0322 56.7227 88.8528 56.9023 88.8528 57.1238C88.8528 57.3454 89.0322 57.525 89.2534 57.525Z" fill="#3F3D56"/>
<path d="M81.0804 65.7487C81.3017 65.7487 81.4811 65.5691 81.4811 65.3476C81.4811 65.126 81.3017 64.9464 81.0804 64.9464C80.8592 64.9464 80.6798 65.126 80.6798 65.3476C80.6798 65.5691 80.8592 65.7487 81.0804 65.7487Z" fill="#3F3D56"/>
<path d="M89.6541 63.4621C89.8753 63.4621 90.0547 63.2825 90.0547 63.0609C90.0547 62.8394 89.8753 62.6598 89.6541 62.6598C89.4328 62.6598 89.2534 62.8394 89.2534 63.0609C89.2534 63.2825 89.4328 63.4621 89.6541 63.4621Z" fill="#3F3D56"/>
<path d="M85.7678 63.8633C85.9891 63.8633 86.1685 63.6837 86.1685 63.4622C86.1685 63.2406 85.9891 63.061 85.7678 63.061C85.5466 63.061 85.3672 63.2406 85.3672 63.4622C85.3672 63.6837 85.5466 63.8633 85.7678 63.8633Z" fill="#F4F6E2"/>
</g>
<defs>
<clipPath id="clip0">
<rect width="88" height="51" fill="white" transform="translate(6 23)"/>
</clipPath>
</defs>
</svg>
