<svg width="251" height="140" viewBox="0 0 251 140" fill="none" xmlns="http://www.w3.org/2000/svg">
<g clip-path="url(#clip0)">
<path opacity="0.1" d="M251 91.4967C251.013 98.7705 249.031 105.908 245.269 112.13C245.269 119.738 241.728 126.635 235.984 131.662C234.546 132.918 232.998 134.042 231.359 135.02C231.293 135.062 231.225 135.101 231.157 135.141C231.034 135.213 230.911 135.286 230.786 135.36L230.67 135.429C230.145 135.725 229.61 136.011 229.064 136.279C224.029 138.759 218.49 140.038 212.88 140.015H47.6483C46.3318 140.015 45.0271 139.963 43.7341 139.857C39.139 139.495 34.6236 138.447 30.3372 136.749C29.5005 136.418 28.6799 136.062 27.8754 135.681C27.4922 135.501 27.1126 135.316 26.7367 135.125C26.502 135.007 26.2672 134.884 26.0346 134.76C24.6235 134.009 23.2565 133.177 21.9405 132.268C20.7378 131.444 19.5806 130.554 18.4739 129.604C11.0075 123.187 6.38905 114.305 6.38905 104.505C2.20402 98.0502 -0.0158745 90.5147 -3.79261e-05 82.8176C-3.79261e-05 61.0286 17.3857 43.3648 38.8347 43.3648C39.493 43.3648 40.1512 43.3846 40.8094 43.4198C40.9037 43.4198 40.9959 43.4198 41.0902 43.433C44.706 37.2593 49.5395 31.5868 55.3516 26.5934C71.2015 12.989 94.3663 4.41318 120.171 4.41318C141.852 4.41318 161.671 10.4681 176.852 20.4725C182.604 17.2151 189.102 15.5075 195.71 15.5165C217.154 15.5165 234.545 33.1802 234.545 54.9692C234.541 56.3479 234.468 57.7255 234.325 59.0967C239.494 62.7622 243.708 67.6193 246.61 73.2582C249.512 78.8972 251.018 85.1525 251 91.4967V91.4967Z" fill="#DCA8EC"/>
<path opacity="0.1" d="M199.81 60.2132V57.855C201.652 57.1061 203.176 55.7392 204.122 53.9885C205.068 52.2378 205.377 50.212 204.996 48.2582C204.616 46.3043 203.568 44.5439 202.034 43.2782C200.5 42.0126 198.575 41.3205 196.587 41.3205C194.6 41.3205 192.674 42.0126 191.14 43.2782C189.606 44.5439 188.559 46.3043 188.178 48.2582C187.798 50.212 188.107 52.2378 189.053 53.9885C189.999 55.7392 191.523 57.1061 193.364 57.855V60.2132C191.218 60.8109 189.278 61.9923 187.761 63.6264C186.154 61.211 183.734 59.4544 180.942 58.6769V56.3165C182.783 55.5676 184.307 54.2008 185.253 52.45C186.199 50.6993 186.508 48.6736 186.128 46.7197C185.747 44.7659 184.7 43.0054 183.166 41.7398C181.631 40.4741 179.706 39.7821 177.719 39.7821C175.731 39.7821 173.806 40.4741 172.272 41.7398C170.738 43.0054 169.69 44.7659 169.31 46.7197C168.929 48.6736 169.238 50.6993 170.184 52.45C171.13 54.2008 172.654 55.5676 174.495 56.3165V58.6747C172.587 59.2055 170.838 60.1989 169.403 61.567C167.802 59.4143 165.532 57.8557 162.95 57.1363V54.778C164.792 54.0291 166.316 52.6623 167.262 50.9116C168.208 49.1609 168.517 47.1351 168.136 45.1813C167.755 43.2274 166.708 41.4669 165.174 40.2013C163.64 38.9357 161.715 38.2436 159.727 38.2436C157.74 38.2436 155.814 38.9357 154.28 40.2013C152.746 41.4669 151.699 43.2274 151.318 45.1813C150.937 47.1351 151.246 49.1609 152.193 50.9116C153.139 52.6623 154.663 54.0291 156.504 54.778V57.1363C154.308 57.7494 152.33 58.9732 150.8 60.6659C150.117 58.9138 149.037 57.345 147.644 56.0838C146.252 54.8226 144.585 53.9037 142.776 53.4V51.0418C144.617 50.2929 146.142 48.926 147.088 47.1753C148.034 45.4246 148.343 43.3989 147.962 41.445C147.581 39.4911 146.534 37.7307 145 36.465C143.466 35.1994 141.54 34.5074 139.553 34.5074C137.566 34.5074 135.64 35.1994 134.106 36.465C132.572 37.7307 131.525 39.4911 131.144 41.445C130.763 43.3989 131.072 45.4246 132.018 47.1753C132.964 48.926 134.488 50.2929 136.33 51.0418V53.4C133.979 54.0557 131.881 55.4102 130.315 57.2846C128.748 59.159 127.785 61.4652 127.554 63.8989C126.446 63.1289 125.217 62.5516 123.918 62.1912V59.833C125.759 59.0841 127.284 57.7173 128.23 55.9665C129.176 54.2158 129.485 52.1901 129.104 50.2362C128.723 48.2823 127.676 46.5219 126.142 45.2563C124.608 43.9906 122.682 43.2986 120.695 43.2986C118.708 43.2986 116.782 43.9906 115.248 45.2563C113.714 46.5219 112.667 48.2823 112.286 50.2362C111.905 52.1901 112.214 54.2158 113.16 55.9665C114.106 57.7173 115.631 59.0841 117.472 59.833V62.1912C115.833 62.6484 114.309 63.4464 112.999 64.5333C111.688 65.6201 110.621 66.9713 109.867 68.4989C108.851 67.8446 107.741 67.3481 106.576 67.0264V64.6681C108.418 63.9192 109.942 62.5524 110.888 60.8017C111.834 59.051 112.143 57.0252 111.762 55.0714C111.381 53.1175 110.334 51.357 108.8 50.0914C107.266 48.8258 105.341 48.1337 103.353 48.1337C101.366 48.1337 99.4403 48.8258 97.9062 50.0914C96.3722 51.357 95.3251 53.1175 94.9442 55.0714C94.5634 57.0252 94.8724 59.051 95.8185 60.8017C96.7645 62.5524 98.2887 63.9192 100.13 64.6681V67.0264C99.0309 67.3302 97.981 67.7906 97.0124 68.3934C96.2532 66.8909 95.1898 65.5634 93.8899 64.4955C92.59 63.4276 91.0822 62.6428 89.4626 62.1912V59.833C91.304 59.0841 92.8282 57.7173 93.7743 55.9665C94.7204 54.2158 95.0294 52.1901 94.6485 50.2362C94.2677 48.2823 93.2206 46.5219 91.6865 45.2563C90.1525 43.9906 88.2269 43.2986 86.2396 43.2986C84.2522 43.2986 82.3266 43.9906 80.7926 45.2563C79.2586 46.5219 78.2115 48.2823 77.8306 50.2362C77.4497 52.1901 77.7588 54.2158 78.7048 55.9665C79.6509 57.7173 81.1751 59.0841 83.0165 59.833V62.1912C81.2734 62.6769 79.6614 63.5483 78.2993 64.7412C76.9372 65.9341 75.8598 67.418 75.1464 69.0835C73.9194 68.14 72.5228 67.4416 71.0326 67.0264V64.6681C72.874 63.9192 74.3982 62.5524 75.3442 60.8017C76.2903 59.051 76.5993 57.0252 76.2185 55.0714C75.8376 53.1175 74.7905 51.357 73.2565 50.0914C71.7224 48.8258 69.7969 48.1337 67.8095 48.1337C65.8221 48.1337 63.8966 48.8258 62.3625 50.0914C60.8285 51.357 59.7814 53.1175 59.4005 55.0714C59.0197 57.0252 59.3287 59.051 60.2748 60.8017C61.2208 62.5524 62.745 63.9192 64.5864 64.6681V67.0264C62.0436 67.7323 59.8019 69.2537 58.2046 71.3575C56.6072 73.4613 55.7423 76.0316 55.7422 78.6747V133.18H79.8636V128.345H91.2727V133.18H115.407V128.345H132.74V119.554H147.66V123.29H165.651V124.829H184.52V126.367H208.655V71.8615C208.655 69.2184 207.79 66.6481 206.192 64.5443C204.595 62.4405 202.353 60.9192 199.81 60.2132V60.2132Z" fill="#CF289D"/>
<path d="M107.68 37.1429H127.74C132.647 37.1426 137.505 38.1104 142.038 39.991C146.571 41.8716 150.69 44.6282 154.159 48.1034C157.629 51.5785 160.381 55.7043 162.259 60.2449C164.136 64.7856 165.103 69.6522 165.103 74.567V125.275H70.3195V74.567C70.3195 64.6415 74.2556 55.1225 81.2621 48.1041C88.2685 41.0857 97.7713 37.1429 107.68 37.1429V37.1429Z" fill="#2F2E41"/>
<path opacity="0.2" d="M109.874 39.1824H125.546C130.453 39.1821 135.311 40.1499 139.844 42.0305C144.377 43.9112 148.496 46.6678 151.965 50.1429C155.435 53.6181 158.187 57.7438 160.065 62.2845C161.942 66.8251 162.909 71.6918 162.909 76.6066V123.233H72.5135V76.6066C72.5135 66.6811 76.4497 57.1621 83.4562 50.1437C90.4626 43.1253 99.9653 39.1824 109.874 39.1824V39.1824Z" fill="black"/>
<path d="M229.059 132.437V136.275C224.025 138.754 218.486 140.033 212.876 140.011H47.6483C46.3319 140.011 45.0271 139.958 43.7341 139.853C39.139 139.49 34.6236 138.443 30.3372 136.745C29.5005 136.414 28.68 136.058 27.8755 135.677C27.4922 135.497 27.1127 135.311 26.7368 135.121C26.502 135.002 26.2672 134.879 26.0347 134.756C24.6236 134.006 23.2567 133.175 21.9406 132.268V121.846C21.9406 120.162 22.6086 118.546 23.7977 117.355C24.9869 116.164 26.5997 115.495 28.2814 115.495H210.658C212.192 115.497 213.673 116.057 214.827 117.07L226.894 127.664C227.574 128.259 228.118 128.993 228.492 129.816C228.865 130.639 229.059 131.533 229.059 132.437V132.437Z" fill="#2B2A3E"/>
<path d="M105.901 49.6286C101.116 49.945 96.3498 50.4579 91.6018 51.167C90.2525 51.3692 88.8834 51.5934 87.6525 52.1912C86.696 52.6929 85.8143 53.3262 85.0328 54.0725C81.5084 57.2355 78.6705 61.0903 76.6954 65.3978C75.4733 68.0681 74.5957 70.8923 73.4438 73.5846C69.3431 83.2 61.9053 91.0637 57.5764 100.578C56.6396 102.637 55.8497 104.787 55.5359 107.026C55.2112 109.343 55.5798 112.046 57.4799 113.4C58.3575 114.022 59.4238 114.279 60.4682 114.499C73.6153 117.415 86.9153 119.591 100.306 121.015C98.8554 119.613 98.3705 117.44 98.5614 115.431C98.7523 113.422 99.5399 111.523 100.317 109.662C92.7384 107.987 85.1791 106.229 77.6389 104.387C76.5133 104.112 75.1618 103.596 75.0235 102.444C74.9533 101.857 75.243 101.292 75.5282 100.776C78.744 94.9427 82.6002 89.4877 87.025 84.5121C87.025 90.6791 86.7201 97.6439 86.7201 103.813H157.829C156.974 100.293 156.472 96.6967 156.329 93.0769C155.997 81.2615 159.969 69.5363 158.937 57.745C158.841 56.6571 158.692 55.5363 158.123 54.6044C157.143 52.9956 155.186 52.3297 153.386 51.7802C146.488 49.6791 139.445 47.5538 132.236 47.7187C130.092 47.7692 127.957 48.0198 125.827 48.2725C119.335 49.0395 112.423 49.1956 105.901 49.6286Z" fill="#C4FFD8"/>
<path d="M72.5969 120.51L77.7749 137.11C77.808 137.215 77.8737 137.307 77.9625 137.372C78.0512 137.437 78.1584 137.473 78.2685 137.473H100.488L95.222 118.132L73.0489 119.84C72.9716 119.846 72.8968 119.87 72.8299 119.909C72.7631 119.948 72.7058 120.002 72.6624 120.066C72.6191 120.131 72.5906 120.204 72.5793 120.281C72.568 120.357 72.574 120.436 72.5969 120.51V120.51Z" fill="#656478"/>
<path d="M110.58 56.767C109.615 57.3231 108.489 57.5231 107.392 57.7143L100.312 58.945C98.9344 59.1846 97.4841 59.4571 96.4222 60.3692C94.2501 62.2308 94.7196 65.6571 95.3778 68.4439L96.6942 74.0351C97.686 78.2373 98.6996 82.4901 100.733 86.2967C104.286 92.9406 110.802 97.7253 117.968 100.031C120.528 100.855 123.234 101.391 125.906 101.097C131.141 100.521 135.619 96.7824 138.379 92.2879C141.139 87.7934 142.453 82.5802 143.658 77.4417C144.814 72.5231 145.913 67.534 145.839 62.4791C145.817 60.9055 145.659 59.2615 144.821 57.9275C142.984 54.9978 138.822 54.778 135.411 55.3187C134.88 55.4044 134.329 55.4967 133.818 55.3362C132.282 54.8571 132.247 52.745 131.588 51.2791C130.344 48.5143 126.654 48.0242 123.637 48.2747C120.62 48.5253 115.923 48.8483 113.294 50.5604C110.767 52.1978 113.545 55.0549 110.58 56.767Z" fill="#FBBEBE"/>
<path opacity="0.1" d="M110.58 56.767C109.615 57.3231 108.489 57.5231 107.392 57.7143L100.312 58.945C98.9344 59.1846 97.4841 59.4571 96.4222 60.3692C94.2501 62.2308 94.7196 65.6571 95.3778 68.4439L96.6942 74.0351C97.686 78.2373 98.6996 82.4901 100.733 86.2967C104.286 92.9406 110.802 97.7253 117.968 100.031C120.528 100.855 123.234 101.391 125.906 101.097C131.141 100.521 135.619 96.7824 138.379 92.2879C141.139 87.7934 142.453 82.5802 143.658 77.4417C144.814 72.5231 145.913 67.534 145.839 62.4791C145.817 60.9055 145.659 59.2615 144.821 57.9275C142.984 54.9978 138.822 54.778 135.411 55.3187C134.88 55.4044 134.329 55.4967 133.818 55.3362C132.282 54.8571 132.247 52.745 131.588 51.2791C130.344 48.5143 126.654 48.0242 123.637 48.2747C120.62 48.5253 115.923 48.8483 113.294 50.5604C110.767 52.1978 113.545 55.0549 110.58 56.767Z" fill="black"/>
<path d="M104.72 63.0659C105.791 65.3165 106.594 67.7033 107.888 69.833C108.917 71.5253 110.236 73.0176 111.548 74.5011C114.947 78.3517 118.389 82.233 122.595 85.1648C124.337 76.2015 128.545 67.9041 134.744 61.2088C136.556 59.2593 138.824 57.3385 141.484 57.411C143.134 57.4571 144.656 58.2769 146.03 59.189C147.566 60.2066 149.018 61.3868 150.122 62.8527C151.866 65.1868 152.619 68.1429 152.755 71.0549C152.891 73.967 152.439 76.8725 151.991 79.7517L149.687 94.633C149.553 95.4945 149.367 96.4462 148.665 96.9626C148.266 97.2157 147.817 97.3777 147.348 97.4374C138.974 99.0703 130.342 98.011 121.81 97.9275C112.375 97.8374 102.68 98.9143 93.7432 95.9077C93.2759 95.7495 92.791 95.567 92.475 95.1912C92.2675 94.9077 92.1183 94.5857 92.0362 94.244C89.9541 87.4923 91.6237 80.2374 92.859 73.2813C93.837 67.7689 94.5335 62.21 94.9455 56.6264C94.9828 56.1231 100.503 57.2352 101.12 57.5912C102.798 58.5868 103.913 61.3692 104.72 63.0659Z" fill="#C4FFD8"/>
<g opacity="0.2">
<path opacity="0.2" d="M36.6123 117.976C36.6123 118.077 36.6013 118.176 36.5903 118.273C35.7537 117.941 34.9331 117.585 34.1286 117.204C33.6988 117.148 33.2991 116.953 32.9899 116.648C32.7551 116.53 32.5204 116.407 32.2878 116.284C32.3404 116.173 32.3998 116.066 32.4655 115.963C32.9175 115.246 33.6042 114.798 34.3612 114.822C35.1181 114.846 35.7741 115.336 36.18 116.077C36.4905 116.66 36.6397 117.316 36.6123 117.976V117.976Z" fill="#3F3D56"/>
<path opacity="0.2" d="M36.7307 114.213C36.7158 114.872 36.5257 115.516 36.18 116.077C35.728 116.791 35.0413 117.24 34.2844 117.215L34.1286 117.204C33.6988 117.148 33.2991 116.953 32.9899 116.648C32.7802 116.449 32.6032 116.217 32.4655 115.963C32.1627 115.378 32.0146 114.725 32.0354 114.066C32.0561 113.407 32.245 112.765 32.584 112.2C33.0359 111.484 33.7227 111.035 34.4796 111.059C35.2366 111.084 35.8926 111.574 36.2985 112.314C36.6089 112.897 36.7582 113.553 36.7307 114.213V114.213Z" fill="#3F3D56"/>
<path opacity="0.2" d="M36.8491 110.456C36.9027 108.757 35.8956 107.345 34.5997 107.304C33.3038 107.263 32.2098 108.608 32.1562 110.308C32.1026 112.007 33.1096 113.419 34.4056 113.46C35.7015 113.501 36.7955 112.156 36.8491 110.456Z" fill="#3F3D56"/>
<path opacity="0.2" d="M36.9689 106.694C37.0225 104.994 36.0154 103.583 34.7195 103.542C33.4236 103.501 32.3295 104.845 32.2759 106.545C32.2223 108.245 33.2294 109.656 34.5253 109.697C35.8212 109.738 36.9152 108.393 36.9689 106.694Z" fill="#3F3D56"/>
<path opacity="0.2" d="M37.0863 102.931C37.14 101.231 36.1329 99.82 34.837 99.779C33.541 99.7379 32.447 101.083 32.3934 102.782C32.3398 104.482 33.3469 105.893 34.6428 105.934C35.9387 105.975 37.0327 104.631 37.0863 102.931Z" fill="#3F3D56"/>
<path opacity="0.2" d="M26.7687 76.8242C26.4597 76.4051 26.1811 75.9644 25.9349 75.5055L32.1353 74.6857L25.4522 74.5275C24.8566 73.1123 24.5554 71.5903 24.5671 70.0545C24.5788 68.5187 24.9032 67.0015 25.5202 65.5956L34.3228 70.5275L26.2596 64.189C27.073 62.8712 28.149 61.7355 29.4202 60.8529C30.6915 59.9703 32.1308 59.3597 33.6482 59.0594C35.1655 58.759 36.7285 58.7753 38.2393 59.1071C39.7502 59.439 41.1765 60.0794 42.4291 60.9882C43.6818 61.8971 44.734 63.0549 45.5199 64.3894C46.3058 65.7238 46.8086 67.2063 46.9968 68.7442C47.1851 70.282 47.0548 71.8422 46.614 73.3274C46.1733 74.8125 45.4316 76.1907 44.4352 77.3758C44.9153 78.028 45.3236 78.7302 45.6529 79.4703L37.5195 83.3912L46.1488 80.7912C46.6924 82.5867 46.7805 84.4896 46.405 86.3278C46.0296 88.166 45.2025 89.8813 43.9986 91.3187C45.2518 93.0216 46.0012 95.0436 46.161 97.1532C46.3209 99.2628 45.8847 101.375 44.9024 103.248C43.9201 105.121 42.4314 106.679 40.6065 107.744C38.7816 108.809 36.6943 109.338 34.5833 109.271C32.4723 109.203 30.4229 108.542 28.6695 107.362C26.9162 106.183 25.5296 104.533 24.6686 102.601C23.8075 100.669 23.5066 98.5334 23.8004 96.4383C24.0942 94.3433 24.9708 92.3733 26.3299 90.7538C24.8331 88.719 24.0626 86.2392 24.1422 83.7129C24.2218 81.1866 25.1468 78.7604 26.7687 76.8242V76.8242Z" fill="#C4FFD8"/>
<path opacity="0.1" d="M46.6237 84.422C46.5464 86.9503 45.6186 89.3782 43.9908 91.3121C45.2458 93.0144 45.9969 95.0362 46.1583 97.1461C46.3197 99.2561 45.8848 101.369 44.9035 103.243C43.9221 105.117 42.4339 106.676 40.6091 107.742C38.7843 108.809 36.6967 109.339 34.5853 109.272C32.4738 109.205 30.4237 108.544 28.6697 107.365C26.9157 106.186 25.5285 104.535 24.667 102.603C23.8055 100.671 23.5045 98.5349 23.7984 96.4394C24.0922 94.3438 24.9691 92.3735 26.3287 90.7538C24.874 88.789 46.6632 83.1582 46.6237 84.422Z" fill="black"/>
</g>
<path opacity="0.1" d="M14.924 35.7824C17.545 35.7824 19.6697 33.654 19.6697 31.0286C19.6697 28.4031 17.545 26.2747 14.924 26.2747C12.303 26.2747 10.1782 28.4031 10.1782 31.0286C10.1782 33.654 12.303 35.7824 14.924 35.7824Z" fill="#C4FFD8"/>
<path opacity="0.1" d="M34.7034 9.50769C37.3244 9.50769 39.4491 7.37932 39.4491 4.75385C39.4491 2.12837 37.3244 0 34.7034 0C32.0824 0 29.9576 2.12837 29.9576 4.75385C29.9576 7.37932 32.0824 9.50769 34.7034 9.50769Z" fill="#C4FFD8"/>
<path opacity="0.1" d="M33.0951 30.7714C37.4877 30.7714 41.0486 27.2045 41.0486 22.8044C41.0486 18.4043 37.4877 14.8374 33.0951 14.8374C28.7025 14.8374 25.1417 18.4043 25.1417 22.8044C25.1417 27.2045 28.7025 30.7714 33.0951 30.7714Z" fill="#C4FFD8"/>
<path d="M119.137 59.2307C129.316 59.2307 137.567 50.9652 137.567 40.7692C137.567 30.5732 129.316 22.3077 119.137 22.3077C108.959 22.3077 100.707 30.5732 100.707 40.7692C100.707 50.9652 108.959 59.2307 119.137 59.2307Z" fill="#FBBEBE"/>
<path d="M111.651 4.54285C106.734 5.16702 101.427 5.9912 97.9514 9.52966C96.0075 11.5077 94.8688 14.145 93.9319 16.756C92.4795 20.822 91.3978 25.1077 91.7379 29.422C92.0406 33.2813 93.4668 37.2286 92.3127 40.9253C91.7817 42.6264 90.7396 44.1121 89.93 45.6967C88.4292 48.6396 87.7228 51.9385 87.4639 55.233C87.2839 57.4989 87.319 59.8308 88.0628 61.978C88.8549 64.2637 90.3995 66.2088 91.378 68.4198C92.8261 71.6857 92.9709 75.3604 93.0828 78.9319C93.1947 82.5033 93.2891 86.0505 93.3724 89.6088C93.4251 91.8461 93.4295 94.2417 92.1942 96.1077C96.7557 94.2769 101.381 92.4088 105.284 89.4198C109.187 86.4308 112.347 82.1209 112.851 77.2242C113.259 73.2549 111.921 69.3428 110.767 65.5231C107.915 56.0725 106.072 45.9978 108.147 36.3472C108.895 32.8725 110.714 28.9934 114.205 28.3538C116.335 27.9648 118.461 28.9385 120.381 29.945C124.919 32.3231 129.596 35.4 131.286 40.2418C132.822 44.6198 131.529 49.4967 129.53 53.6769C127.532 57.8571 124.811 61.7011 123.258 66.0703C120.873 72.7736 121.544 80.622 125.507 86.5275C129.469 92.433 136.791 96.0659 143.831 95.1121C143.281 92.7297 141.554 90.8044 140.628 88.5406C138.945 84.4286 140.079 79.6989 141.89 75.6418C143.7 71.5846 146.17 67.8022 147.302 63.4945C148.101 60.4615 148.197 57.2923 148.193 54.156C148.193 49.2198 147.95 44.2813 147.476 39.367C147.002 34.4527 146.278 29.4769 144.716 24.7494C143.461 20.9582 141.633 17.2923 138.899 14.3846C135.99 11.2879 132.203 9.189 128.484 7.13186C126.259 5.90549 123.986 4.66373 121.489 4.20439C119.515 3.84175 117.439 3.32527 115.425 3.2923C114.056 3.27252 112.616 3.56922 111.651 4.54285Z" fill="#3D2F2F"/>
<path d="M146.339 28.3712L134.482 26.0668C134.137 25.9997 133.803 26.2255 133.736 26.5711L128.055 55.9011C127.988 56.2466 128.214 56.5811 128.559 56.6481L140.416 58.9526C140.761 59.0196 141.095 58.7938 141.162 58.4483L146.843 29.1183C146.91 28.7727 146.684 28.4382 146.339 28.3712Z" fill="#656478"/>
<path d="M147.235 28.5454L135.378 26.241C135.033 26.1739 134.699 26.3997 134.632 26.7453L128.952 56.0753C128.885 56.4208 129.11 56.7553 129.455 56.8224L141.312 59.1268C141.657 59.1939 141.991 58.9681 142.058 58.6225L147.739 29.2925C147.806 28.947 147.58 28.6125 147.235 28.5454Z" fill="#3F3D56"/>
<path d="M140.904 34.1877C141.136 32.9902 140.923 31.9416 140.43 31.8456C139.936 31.7497 139.348 32.6427 139.116 33.8403C138.884 35.0378 139.096 36.0864 139.59 36.1824C140.083 36.2783 140.672 35.3853 140.904 34.1877Z" fill="#C4FFD8"/>
<path d="M143.711 44.1758C143.131 43.1494 142.513 42.0879 141.536 41.4308C140.975 41.0859 140.372 40.8148 139.742 40.6242C137.616 39.8791 135.454 39.1275 133.206 39.0088C132.839 38.9912 132.42 39.0088 132.181 39.2901C131.689 39.8681 132.468 40.6549 133.142 41.0044L138.5 43.7846L133.561 43.2615C132.843 43.1846 131.821 43.3802 131.874 44.1011C131.909 44.5736 132.427 44.8308 132.874 44.9802C136.045 46.0791 139.709 46.9406 141.444 49.8154C139.132 49.5956 136.769 49.3758 134.502 49.8857C133.881 50.0264 133.238 50.2439 132.833 50.734C132.427 51.2242 132.381 52.0527 132.892 52.4417C133.208 52.6769 133.633 52.6835 134.028 52.6615C135.637 52.5846 137.286 52.2637 138.831 52.7231C140.376 53.1824 141.747 54.8044 141.214 56.3253C142.583 56.4483 144.202 56.3253 145.468 55.734C146.864 55.0747 146.831 53.8351 146.745 52.3406C146.563 49.4132 145.113 46.6813 143.711 44.1758Z" fill="#FBBEBE"/>
<path opacity="0.1" d="M142.326 92.0857C141.098 83.4369 139.414 74.8593 137.28 66.389C136.183 61.9934 134.937 57.5231 135.25 53C139.783 53.578 143.845 54.0066 148.022 52.1516C148.09 54.5275 149.81 56.5472 150.435 58.8439C150.855 60.3824 150.697 62.011 150.861 63.5956C151.026 65.1802 151.519 66.7165 151.943 68.2571C154.044 75.8917 154.539 83.8801 153.397 91.7165C149.521 92.178 146.194 92.6857 142.326 92.0857Z" fill="black"/>
<path d="M141.668 92.0857C140.44 83.4369 138.756 74.8593 136.622 66.389C135.525 61.9934 134.278 57.5231 134.592 53C139.125 53.578 143.186 54.0066 147.364 52.1516C147.432 54.5275 149.152 56.5472 149.777 58.8439C150.196 60.3824 150.038 62.011 150.203 63.5956C150.367 65.1802 150.861 66.7165 151.285 68.2571C153.386 75.8917 153.881 83.8801 152.739 91.7165C148.862 92.178 145.536 92.6857 141.668 92.0857Z" fill="#C4FFD8"/>
<path d="M78.2466 134.895L80.3946 81.5165C80.4288 80.668 80.7915 79.8663 81.4059 79.2812C82.0203 78.6961 82.838 78.3737 83.6857 78.3824L168.49 79.1956C168.94 79.2003 169.383 79.2979 169.793 79.4824C170.203 79.6669 170.57 79.9343 170.872 80.2678C171.174 80.6013 171.404 80.9937 171.547 81.4204C171.69 81.8471 171.744 82.2988 171.705 82.7473L167.224 133.884C167.154 134.688 166.789 135.437 166.199 135.987C165.61 136.538 164.838 136.85 164.032 136.864L81.5618 138.292C81.1179 138.3 80.677 138.217 80.2663 138.047C79.8556 137.878 79.4837 137.627 79.1733 137.309C78.863 136.991 78.6207 136.613 78.4613 136.197C78.302 135.782 78.2289 135.339 78.2466 134.895Z" fill="#3F3D56"/>
<path d="M125.61 107.033C127.67 107.033 129.34 105.065 129.34 102.637C129.34 100.21 127.67 98.2418 125.61 98.2418C123.55 98.2418 121.88 100.21 121.88 102.637C121.88 105.065 123.55 107.033 125.61 107.033Z" fill="#BEE9FB"/>
<path d="M205.364 99.6176L205.188 101.125L202.336 125.49C194.9 130.684 189.117 125.692 189.066 125.49L185.472 101.011L185.268 99.6176H205.364Z" fill="#3F3D56"/>
<path opacity="0.1" d="M205.364 99.6176L205.188 101.125C196.811 106.004 187.875 102.207 185.472 101.011L185.268 99.6176H205.364Z" fill="black"/>
<path d="M184.849 98.2945V100.492C184.849 100.492 195.929 106.945 205.912 100.492V98.2945H184.849Z" fill="#C4FFD8"/>
<path d="M186.137 95.3912C186.137 95.3912 185.815 96.8747 184.849 97.0044V98.8747H205.912V97.1978C205.912 97.1978 204.624 96.8747 204.815 95.3912H186.137Z" fill="#C4FFD8"/>
<path d="M195.317 98.2945C200.564 98.2945 204.817 97.0665 204.817 95.5516C204.817 94.0368 200.564 92.8088 195.317 92.8088C190.07 92.8088 185.817 94.0368 185.817 95.5516C185.817 97.0665 190.07 98.2945 195.317 98.2945Z" fill="#C4FFD8"/>
<path opacity="0.1" d="M195.317 98.2945C200.564 98.2945 204.817 97.0665 204.817 95.5516C204.817 94.0368 200.564 92.8088 195.317 92.8088C190.07 92.8088 185.817 94.0368 185.817 95.5516C185.817 97.0665 190.07 98.2945 195.317 98.2945Z" fill="black"/>
<path opacity="0.1" d="M203.657 95.3912C203.657 96.4901 200.054 97.3912 195.607 97.3912H195.37C192.384 97.3692 189.803 96.9516 188.487 96.3275C187.892 96.0462 187.555 95.7275 187.555 95.3912C187.555 94.833 188.476 94.3275 189.968 93.9648C191.822 93.5588 193.716 93.3663 195.613 93.3912C200.054 93.3912 203.657 94.2857 203.657 95.3912Z" fill="black"/>
<path opacity="0.1" d="M195.37 97.3912C192.384 97.3693 189.803 96.9517 188.487 96.3275L189.961 93.9561L195.37 97.3912Z" fill="black"/>
<path opacity="0.1" d="M186.955 95.5451C186.841 95.5209 186.69 95.5605 186.668 95.6747C186.665 95.7329 186.681 95.7906 186.712 95.8396C186.963 96.238 187.329 96.5512 187.761 96.7385C187.834 96.7801 187.916 96.8062 188 96.8154C188.044 96.8207 188.088 96.8126 188.127 96.7922C188.166 96.7718 188.198 96.7401 188.219 96.7011C188.231 96.6679 188.236 96.6325 188.234 96.5973C188.231 96.562 188.221 96.5277 188.204 96.4967C188.137 96.3779 188.044 96.2757 187.932 96.1978C187.638 95.9671 187.337 95.6088 186.955 95.5451Z" fill="black"/>
<path d="M195.637 119.037C198.767 119.037 201.305 116.496 201.305 113.36C201.305 110.225 198.767 107.684 195.637 107.684C192.507 107.684 189.97 110.225 189.97 113.36C189.97 116.496 192.507 119.037 195.637 119.037Z" fill="#ECC4FF"/>
<path d="M41.3206 113.374H43.9776C45.4324 113.374 46.8276 113.953 47.8562 114.983C48.8849 116.013 49.4628 117.411 49.4628 118.868V127.033H35.8355V118.868C35.8355 117.411 36.4134 116.013 37.4421 114.983C38.4707 113.953 39.8659 113.374 41.3206 113.374V113.374Z" fill="#3F3D56"/>
<path opacity="0.1" d="M41.3206 113.374H43.9776C45.4324 113.374 46.8276 113.953 47.8562 114.983C48.8849 116.013 49.4628 117.411 49.4628 118.868V127.033H35.8355V118.868C35.8355 117.411 36.4134 116.013 37.4421 114.983C38.4707 113.953 39.8659 113.374 41.3206 113.374V113.374Z" fill="black"/>
<path d="M42.1039 116.378C42.7062 116.378 43.1944 115.889 43.1944 115.286C43.1944 114.682 42.7062 114.193 42.1039 114.193C41.5017 114.193 41.0135 114.682 41.0135 115.286C41.0135 115.889 41.5017 116.378 42.1039 116.378Z" fill="#3F3D56"/>
<path d="M42.1039 115.013C42.7062 115.013 43.1944 114.524 43.1944 113.921C43.1944 113.318 42.7062 112.829 42.1039 112.829C41.5017 112.829 41.0135 113.318 41.0135 113.921C41.0135 114.524 41.5017 115.013 42.1039 115.013Z" fill="#3F3D56"/>
<path d="M42.1039 113.646C42.7062 113.646 43.1944 113.157 43.1944 112.554C43.1944 111.951 42.7062 111.462 42.1039 111.462C41.5017 111.462 41.0135 111.951 41.0135 112.554C41.0135 113.157 41.5017 113.646 42.1039 113.646Z" fill="#3F3D56"/>
<path d="M42.1039 112.281C42.7062 112.281 43.1944 111.792 43.1944 111.189C43.1944 110.586 42.7062 110.097 42.1039 110.097C41.5017 110.097 41.0135 110.586 41.0135 111.189C41.0135 111.792 41.5017 112.281 42.1039 112.281Z" fill="#3F3D56"/>
<path d="M42.1039 110.916C42.7062 110.916 43.1944 110.427 43.1944 109.824C43.1944 109.221 42.7062 108.732 42.1039 108.732C41.5017 108.732 41.0135 109.221 41.0135 109.824C41.0135 110.427 41.5017 110.916 42.1039 110.916Z" fill="#3F3D56"/>
<path d="M42.1039 109.552C42.7062 109.552 43.1944 109.063 43.1944 108.459C43.1944 107.856 42.7062 107.367 42.1039 107.367C41.5017 107.367 41.0135 107.856 41.0135 108.459C41.0135 109.063 41.5017 109.552 42.1039 109.552Z" fill="#3F3D56"/>
<path d="M42.1039 108.187C42.7062 108.187 43.1944 107.698 43.1944 107.095C43.1944 106.491 42.7062 106.002 42.1039 106.002C41.5017 106.002 41.0135 106.491 41.0135 107.095C41.0135 107.698 41.5017 108.187 42.1039 108.187Z" fill="#3F3D56"/>
<path d="M43.7407 108.732C44.343 108.732 44.8312 108.243 44.8312 107.64C44.8312 107.036 44.343 106.547 43.7407 106.547C43.1385 106.547 42.6503 107.036 42.6503 107.64C42.6503 108.243 43.1385 108.732 43.7407 108.732Z" fill="#3F3D56"/>
<path d="M44.8311 108.187C45.4333 108.187 45.9216 107.698 45.9216 107.095C45.9216 106.491 45.4333 106.002 44.8311 106.002C44.2289 106.002 43.7407 106.491 43.7407 107.095C43.7407 107.698 44.2289 108.187 44.8311 108.187Z" fill="#3F3D56"/>
<path d="M45.9216 107.64C46.5238 107.64 47.012 107.151 47.012 106.547C47.012 105.944 46.5238 105.455 45.9216 105.455C45.3193 105.455 44.8311 105.944 44.8311 106.547C44.8311 107.151 45.3193 107.64 45.9216 107.64Z" fill="#3F3D56"/>
<path d="M42.1039 106.822C42.7062 106.822 43.1944 106.333 43.1944 105.73C43.1944 105.126 42.7062 104.637 42.1039 104.637C41.5017 104.637 41.0135 105.126 41.0135 105.73C41.0135 106.333 41.5017 106.822 42.1039 106.822Z" fill="#3F3D56"/>
<path d="M42.1039 105.457C42.7062 105.457 43.1944 104.968 43.1944 104.365C43.1944 103.762 42.7062 103.273 42.1039 103.273C41.5017 103.273 41.0135 103.762 41.0135 104.365C41.0135 104.968 41.5017 105.457 42.1039 105.457Z" fill="#3F3D56"/>
<path d="M42.1039 104.09C42.7062 104.09 43.1944 103.601 43.1944 102.998C43.1944 102.395 42.7062 101.905 42.1039 101.905C41.5017 101.905 41.0135 102.395 41.0135 102.998C41.0135 103.601 41.5017 104.09 42.1039 104.09Z" fill="#3F3D56"/>
<path d="M42.1039 102.725C42.7062 102.725 43.1944 102.236 43.1944 101.633C43.1944 101.03 42.7062 100.541 42.1039 100.541C41.5017 100.541 41.0135 101.03 41.0135 101.633C41.0135 102.236 41.5017 102.725 42.1039 102.725Z" fill="#3F3D56"/>
<path d="M46.6237 98.1121C46.3538 98.1516 46.0818 98.1802 45.8097 98.1978C46.0636 97.9754 46.2991 97.7329 46.514 97.4725C46.3622 97.0138 46.1401 96.5816 45.8558 96.1912C45.5855 96.3433 45.2867 96.4376 44.9782 96.4681C44.7083 96.5077 44.4362 96.5363 44.1642 96.556C44.5218 96.2637 44.8553 95.8242 45.2063 95.4571C44.395 94.7203 43.3491 94.2955 42.2546 94.2584C41.1601 94.2213 40.0879 94.5743 39.2287 95.2546C38.3696 95.9349 37.7791 96.8983 37.5624 97.9736C37.3457 99.049 37.5167 100.166 38.0451 101.127C38.5735 102.088 39.425 102.83 40.4481 103.221C41.4713 103.613 42.5998 103.628 43.6329 103.264C44.6661 102.9 45.5369 102.181 46.0906 101.234C46.6442 100.288 46.8448 99.1752 46.6566 98.0945L46.6237 98.1121Z" fill="#C4FFD8"/>
<path d="M50.268 103.538C49.9898 103.71 49.6759 103.814 49.3509 103.844C49.081 103.884 48.8089 103.914 48.5369 103.932C48.826 103.672 49.0959 103.391 49.3443 103.092C48.6868 102.921 47.9891 103.001 47.3875 103.317C46.7858 103.633 46.3236 104.163 46.0911 104.802C45.8586 105.442 45.8725 106.145 46.1302 106.775C46.3879 107.405 46.8708 107.915 47.4845 108.208C48.0982 108.5 48.7986 108.552 49.4487 108.354C50.0988 108.156 50.6519 107.723 50.9999 107.138C51.3479 106.554 51.4657 105.86 51.3304 105.193C51.195 104.526 50.8162 103.934 50.268 103.532V103.538Z" fill="#C4FFD8"/>
<path d="M40.4694 108.732C41.0716 108.732 41.5598 108.243 41.5598 107.64C41.5598 107.036 41.0716 106.547 40.4694 106.547C39.8671 106.547 39.3789 107.036 39.3789 107.64C39.3789 108.243 39.8671 108.732 40.4694 108.732Z" fill="#3F3D56"/>
<path d="M39.3789 108.187C39.9811 108.187 40.4693 107.698 40.4693 107.095C40.4693 106.491 39.9811 106.002 39.3789 106.002C38.7767 106.002 38.2885 106.491 38.2885 107.095C38.2885 107.698 38.7767 108.187 39.3789 108.187Z" fill="#3F3D56"/>
<path d="M38.2884 107.64C38.8907 107.64 39.3789 107.151 39.3789 106.547C39.3789 105.944 38.8907 105.455 38.2884 105.455C37.6862 105.455 37.198 105.944 37.198 106.547C37.198 107.151 37.6862 107.64 38.2884 107.64Z" fill="#3F3D56"/>
<path d="M33.9421 103.538C34.2201 103.71 34.534 103.814 34.8592 103.844C35.129 103.884 35.4011 103.914 35.6732 103.932C35.3835 103.673 35.1136 103.392 34.8658 103.092C35.5232 102.921 36.2209 103.001 36.8226 103.317C37.4242 103.633 37.8865 104.163 38.119 104.802C38.3515 105.442 38.3375 106.145 38.0798 106.775C37.8221 107.405 37.3392 107.915 36.7256 108.208C36.1119 108.5 35.4115 108.552 34.7614 108.354C34.1112 108.156 33.5581 107.723 33.2101 107.138C32.8621 106.554 32.7443 105.86 32.8797 105.193C33.015 104.526 33.3938 103.934 33.9421 103.532V103.538Z" fill="#C4FFD8"/>
<path d="M41.3206 114.193H43.9776C45.4324 114.193 46.8276 114.772 47.8562 115.803C48.8849 116.833 49.4628 118.231 49.4628 119.688V126.912C49.4628 127.159 49.3648 127.396 49.1903 127.571C49.0159 127.746 48.7792 127.844 48.5325 127.844H36.7658C36.5191 127.844 36.2824 127.746 36.108 127.571C35.9335 127.396 35.8355 127.159 35.8355 126.912V119.688C35.8355 118.231 36.4134 116.833 37.4421 115.803C38.4707 114.772 39.8659 114.193 41.3206 114.193V114.193Z" fill="#3F3D56"/>
<g opacity="0.1">
<path opacity="0.1" d="M46.7071 98.411C46.5967 98.5291 46.4795 98.6407 46.356 98.745C46.4811 98.745 46.6039 98.7253 46.729 98.7121C46.7334 98.611 46.718 98.5099 46.7071 98.411Z" fill="black"/>
<path opacity="0.1" d="M44.7192 97.1055C44.9935 97.0879 45.2634 97.0594 45.5354 97.0198C45.7795 96.9888 46.0181 96.9237 46.2441 96.8264C46.1336 96.6064 46.006 96.3955 45.8623 96.1956C45.7259 96.2788 45.5781 96.3418 45.4235 96.3824C45.2084 96.6419 44.9729 96.8837 44.7192 97.1055Z" fill="black"/>
<path opacity="0.1" d="M38.0164 99.4505C38.0147 98.6173 38.2375 97.799 38.6611 97.0819C39.0848 96.3648 39.6936 95.7755 40.4236 95.3759C41.1535 94.9763 41.9775 94.7814 42.8088 94.8115C43.6401 94.8417 44.4479 95.0958 45.1471 95.5472L45.2173 95.4725C44.761 95.0658 44.2288 94.7536 43.6515 94.5538C43.0742 94.3541 42.4631 94.2707 41.8535 94.3086C41.2439 94.3464 40.6478 94.5048 40.0995 94.7744C39.5512 95.0441 39.0617 95.4198 38.659 95.8798C38.2563 96.3399 37.9485 96.8752 37.7533 97.4549C37.5581 98.0347 37.4793 98.6474 37.5216 99.2577C37.5638 99.8681 37.7262 100.464 37.9994 101.011C38.2726 101.559 38.6512 102.046 39.1134 102.446C38.4038 101.61 38.0149 100.548 38.0164 99.4505V99.4505Z" fill="black"/>
</g>
<g opacity="0.1">
<path opacity="0.1" d="M48.537 104.477C48.8091 104.459 49.0811 104.431 49.351 104.391C49.6762 104.361 49.99 104.255 50.2681 104.084C50.5762 104.311 50.833 104.6 51.022 104.934C51.211 105.267 51.3279 105.636 51.3651 106.018C51.3758 105.922 51.3809 105.826 51.3805 105.73C51.3826 105.303 51.2843 104.881 51.0938 104.5C50.9032 104.118 50.6256 103.786 50.2835 103.532C50.0053 103.703 49.6914 103.807 49.3663 103.837L49.1469 103.866C48.9597 104.085 48.7558 104.289 48.537 104.477V104.477Z" fill="black"/>
<path opacity="0.1" d="M48.6466 103.545C48.7377 103.546 48.8285 103.553 48.9187 103.565C49.0613 103.413 49.2017 103.251 49.3444 103.092C48.941 102.984 48.5183 102.971 48.1089 103.053C47.6995 103.135 47.3144 103.31 46.9835 103.565C46.6525 103.82 46.3846 104.148 46.2005 104.523C46.0164 104.899 45.921 105.311 45.9216 105.73C45.9216 105.822 45.9216 105.912 45.9348 106.002C46.0023 105.329 46.3171 104.704 46.8182 104.25C47.3193 103.796 47.971 103.545 48.6466 103.545V103.545Z" fill="black"/>
</g>
<g opacity="0.1">
<path opacity="0.1" d="M35.6731 104.477C35.401 104.459 35.129 104.431 34.8591 104.391C34.5338 104.361 34.2199 104.256 33.942 104.084C33.6339 104.311 33.3771 104.6 33.1881 104.934C32.9991 105.267 32.8822 105.636 32.845 106.018C32.8343 105.922 32.8292 105.826 32.8296 105.73C32.8276 105.303 32.9258 104.881 33.1163 104.5C33.3069 104.118 33.5845 103.786 33.9266 103.532C34.2047 103.703 34.5186 103.808 34.8438 103.837L35.0632 103.866C35.2492 104.086 35.4532 104.291 35.6731 104.477Z" fill="black"/>
<path opacity="0.1" d="M35.5634 103.545C35.4717 103.546 35.3801 103.553 35.2892 103.565C35.1488 103.413 35.0083 103.251 34.8657 103.092C35.2691 102.984 35.6918 102.971 36.1012 103.053C36.5106 103.135 36.8957 103.31 37.2266 103.565C37.5575 103.82 37.8254 104.148 38.0096 104.523C38.1937 104.899 38.2891 105.311 38.2884 105.73C38.2884 105.822 38.2884 105.912 38.2753 106.002C38.2078 105.329 37.893 104.704 37.3919 104.25C36.8908 103.796 36.2391 103.545 35.5634 103.545V103.545Z" fill="black"/>
</g>
</g>
<defs>
<clipPath id="clip0">
<rect width="251" height="140" fill="white"/>
</clipPath>
</defs>
</svg>
